<?xml version="1.0" standalone="no"?>
<!DOCTYPE svg PUBLIC "-//W3C//DTD SVG 20010904//EN" "http://www.w3.org/TR/2001/REC-SVG-20010904/DTD/svg10.dtd">
<svg xmlns="http://www.w3.org/2000/svg" version="1.0" width="1024.000000pt" height="1024.000000pt" viewBox="0 0 1024.000000 1024.000000" preserveAspectRatio="xMidYMid meet">
<metadata>
Created by potrace 1.16, written by Peter Selinger 2001-2019
<meta name="Producer" content="Online-Convert"/></metadata>
<g transform="translate(0.000000,1024.000000) scale(0.100000,-0.100000)" fill="#000000" stroke="none">
<path d="M0 5120 l0 -5120 5120 0 5120 0 0 5120 0 5120 -5120 0 -5120 0 0 -5120z m2645 2759 c282 -216 360 -276 545 -414 102 -77 187 -143 188 -147 8 -17 22 -5 76 67 183 238 509 455 841 561 494 157 1030 165 1535 24 354 -100 679 -297 879 -535 42 -50 83 -101 92 -114 l15 -24 445 333 c244 184 484 365 533 403 48 38 91 65 95 60 4 -4 27 -33 51 -63 25 -30 47 -57 50 -60 14 -13 70 -89 72 -98 2 -5 -53 -51 -122 -103 -69 -51 -127 -95 -130 -99 -3 -3 -30 -24 -60 -45 -30 -22 -68 -50 -85 -62 -16 -13 -48 -35 -70 -50 -22 -16 -76 -55 -120 -87 -44 -33 -107 -79 -140 -103 -33 -24 -81 -59 -107 -78 -39 -28 -52 -33 -70 -25 l-23 9 24 0 c36 1 106 71 71 71 -6 0 -10 -7 -10 -16 0 -8 -5 -12 -10 -9 -7 4 -6 13 1 27 6 11 9 31 6 44 -3 16 0 24 9 24 8 0 14 4 14 9 0 5 -9 7 -20 4 -17 -5 -20 -11 -16 -39 7 -41 -11 -55 -35 -26 -9 12 -23 22 -31 22 -10 0 -9 -3 2 -10 12 -8 11 -10 -8 -10 -14 0 -26 9 -34 25 -12 27 -27 32 -46 13 -7 -7 -12 -8 -12 -2 1 13 41 40 73 48 15 3 27 13 27 22 0 9 -6 14 -13 11 -6 -2 -11 -9 -10 -15 2 -9 -51 -27 -70 -23 -5 1 -6 -3 -3 -8 3 -5 -8 -11 -24 -15 -17 -3 -29 -11 -28 -17 2 -6 -3 -14 -11 -17 -10 -3 -12 0 -8 11 7 18 -17 13 -43 -9 -8 -7 -34 -20 -57 -29 -30 -12 -43 -23 -43 -36 0 -10 4 -19 8 -19 14 0 119 -220 146 -305 48 -150 72 -395 42 -434 -8 -11 -8 -13 2 -7 8 5 12 -1 12 -19 0 -14 -7 -28 -15 -31 -11 -5 -12 -11 -4 -25 6 -13 6 -19 0 -19 -6 0 -8 -7 -4 -15 4 -13 -2 -47 -22 -120 -1 -5 -3 -13 -4 -17 -1 -4 -8 -23 -17 -43 -8 -19 -14 -37 -14 -40 -1 -3 -10 -26 -22 -52 -12 -27 -22 -51 -22 -55 -1 -3 -4 -10 -8 -14 -5 -4 -8 -16 -8 -26 0 -10 -4 -18 -8 -18 -5 0 -17 -16 -28 -35 -10 -19 -22 -35 -27 -35 -4 0 -5 -4 -2 -10 3 -5 1 -10 -4 -10 -6 0 -11 -7 -11 -15 0 -8 -4 -15 -10 -15 -5 0 -16 -12 -24 -27 -8 -16 -23 -37 -33 -48 -10 -11 -30 -36 -44 -55 -68 -90 -231 -230 -374 -322 -144 -92 -363 -184 -554 -233 -486 -123 -1019 -105 -1512 51 -73 23 -109 44 -75 44 8 0 18 -4 21 -10 3 -5 11 -10 16 -10 5 0 -2 11 -16 25 -14 14 -25 32 -25 40 0 7 -9 17 -20 20 -11 3 -20 11 -20 18 0 8 3 8 12 -1 16 -16 31 -15 22 1 -5 8 -4 9 4 2 6 -5 12 -21 14 -34 1 -14 9 -26 17 -29 8 -3 11 0 8 5 -3 5 3 10 14 10 24 2 25 -13 2 -26 -10 -6 -13 -11 -7 -11 5 0 16 6 23 13 11 10 12 8 6 -10 -5 -19 -1 -25 20 -33 34 -13 38 -13 29 3 -4 6 3 2 15 -10 12 -13 32 -24 44 -24 22 -1 38 -4 47 -8 3 -2 12 -4 21 -6 9 -1 27 -6 40 -9 24 -7 24 -7 4 9 -19 16 -19 16 6 10 34 -8 44 7 19 30 -22 20 -28 8 -7 -15 10 -12 9 -12 -5 -1 -9 7 -22 10 -28 6 -5 -3 -10 0 -10 7 -1 8 -7 5 -16 -7 -13 -17 -16 -18 -24 -5 -5 8 -10 18 -10 23 0 4 -8 7 -17 7 -13 0 -14 -3 -5 -12 7 -7 12 -15 12 -19 0 -7 -22 3 -83 38 l-22 13 21 0 c12 0 24 -7 28 -15 3 -8 10 -15 16 -15 6 0 8 5 4 12 -4 7 -3 8 4 4 7 -4 12 -3 12 3 0 5 -6 12 -12 14 -8 3 -6 6 5 6 9 1 17 -3 17 -9 0 -5 5 -10 11 -10 5 0 7 5 3 12 -4 7 -3 8 5 4 6 -4 9 -11 6 -16 -3 -4 3 -14 12 -21 15 -12 16 -12 10 3 -3 10 -1 20 5 24 6 4 8 3 5 -3 -4 -6 2 -13 13 -16 16 -4 18 -2 11 11 -7 12 -3 21 11 34 23 20 38 23 38 9 0 -5 -9 -13 -20 -16 -11 -3 -20 -11 -20 -16 0 -14 27 -11 34 4 3 6 3 2 0 -10 -3 -13 -1 -23 5 -23 6 0 11 5 11 11 0 5 4 8 9 5 5 -3 11 1 15 9 3 8 13 15 23 14 16 0 16 -1 -1 -8 -18 -7 -18 -8 -2 -14 10 -4 28 -4 41 -1 12 3 26 1 29 -5 9 -13 26 -14 26 -2 0 5 -8 12 -17 14 -13 3 -11 5 6 6 18 1 22 -3 18 -19 -3 -10 0 -21 7 -23 6 -2 8 -8 4 -12 -5 -5 -16 -1 -25 7 -32 27 -49 33 -29 9 l20 -22 -30 16 c-26 13 -29 13 -32 -1 -3 -10 -11 -14 -22 -11 -19 5 -28 0 -47 -24 -11 -13 -9 -15 8 -14 11 1 24 6 27 11 10 13 39 16 47 4 3 -5 -3 -10 -14 -10 -12 0 -21 -4 -21 -10 0 -16 42 -11 55 6 10 14 15 14 34 4 13 -6 25 -9 28 -6 3 3 -2 8 -11 12 -9 3 -16 10 -16 15 0 6 10 4 23 -3 12 -7 25 -11 29 -10 4 1 5 -5 1 -14 -4 -11 -14 -14 -32 -11 -15 3 -33 2 -41 -4 -12 -7 -9 -9 10 -8 32 0 89 -9 101 -16 5 -4 10 2 10 12 1 15 2 15 6 2 2 -10 13 -19 24 -22 24 -6 25 2 2 18 -15 11 -15 17 -5 39 l12 27 -50 -5 c-28 -2 -50 0 -50 5 0 5 11 7 24 3 21 -5 24 -3 19 15 -6 24 -31 47 -40 37 -4 -3 1 -12 11 -19 16 -12 16 -13 -2 -14 -16 -1 -19 4 -17 23 1 13 -2 24 -8 24 -6 0 -2 9 9 21 15 16 16 24 6 39 -16 26 3 36 34 19 17 -9 21 -15 12 -20 -7 -4 -9 -11 -5 -15 3 -4 13 -1 22 6 14 11 13 15 -7 34 -13 12 -28 20 -34 18 -18 -5 -26 15 -9 22 8 3 15 11 15 18 0 9 -3 9 -10 -2 -9 -13 -11 -13 -19 0 -6 8 -14 11 -18 6 -4 -5 -2 -11 5 -13 10 -4 10 -8 0 -21 -11 -13 -11 -14 1 -7 10 5 12 4 7 -4 -4 -6 -12 -9 -17 -6 -5 4 -9 0 -9 -7 0 -9 -3 -9 -10 2 -5 8 -10 20 -10 25 0 6 5 3 10 -5 8 -13 10 -12 10 3 0 9 -7 17 -15 17 -8 0 -15 -5 -15 -11 0 -5 -4 -7 -10 -4 -5 3 -10 1 -10 -4 0 -6 8 -11 17 -11 9 0 13 -3 10 -7 -8 -7 34 -39 46 -35 9 3 9 -2 1 -22 -3 -9 -13 -16 -21 -16 -8 0 -11 -5 -7 -11 4 -8 -1 -9 -16 -4 -15 5 -20 4 -16 -4 10 -16 -10 -14 -26 3 -27 26 -54 28 -65 4 -9 -21 -10 -20 -9 9 1 18 4 33 9 33 4 0 7 8 7 18 -1 15 -3 14 -19 -5 -10 -12 -31 -25 -45 -29 -27 -6 -27 -6 -21 30 7 35 -5 50 -21 24 -4 -7 -3 -8 4 -4 7 4 12 1 12 -8 0 -9 -7 -16 -16 -16 -9 0 -12 -5 -8 -12 5 -9 2 -9 -9 1 -18 14 -20 12 -11 -13 3 -9 10 -13 15 -10 5 3 17 0 26 -5 10 -6 14 -11 8 -11 -5 -1 -18 -3 -27 -5 -10 -2 -22 4 -28 13 -5 10 -10 12 -10 5 0 -7 -8 -13 -19 -13 -23 0 -47 25 -31 35 5 3 10 2 10 -3 0 -6 7 -13 16 -16 15 -6 15 -4 3 11 -12 15 -12 16 4 10 11 -4 16 -3 12 3 -4 6 4 14 17 19 13 6 17 10 10 10 -7 1 -22 -4 -33 -9 -11 -6 -19 -7 -19 -1 0 5 11 12 25 15 19 5 25 13 25 34 0 19 -3 23 -9 13 -5 -8 -16 -11 -26 -7 -9 3 -22 3 -28 -1 -12 -8 -16 -9 -39 -12 -7 -1 -2 -7 11 -12 14 -5 27 -6 30 -2 8 11 42 13 35 2 -3 -5 -11 -9 -19 -9 -7 0 -23 -13 -34 -29 -18 -24 -19 -30 -6 -35 8 -3 15 -11 15 -17 0 -7 -8 -5 -20 6 -11 10 -20 14 -20 9 0 -5 -8 -19 -18 -31 l-17 -23 0 24 c0 15 5 22 13 19 8 -4 10 0 6 11 -3 9 -10 14 -14 11 -14 -9 -62 15 -66 33 -8 27 -51 44 -68 26 -19 -18 -27 -18 -20 0 3 8 0 24 -6 36 -11 20 -10 21 10 10 12 -6 18 -16 13 -23 -4 -7 0 -6 10 2 15 12 19 12 30 0 7 -8 11 -12 10 -10 -1 2 2 12 8 22 9 17 6 19 -26 19 -20 0 -34 4 -31 8 5 8 76 4 76 -5 0 -2 -5 -13 -10 -24 -7 -11 -7 -19 -1 -19 5 0 11 5 13 12 3 7 7 5 11 -6 4 -9 3 -15 -2 -11 -5 3 -12 1 -15 -4 -3 -5 1 -11 8 -14 8 -3 17 -1 20 6 2 7 5 4 5 -7 1 -13 -4 -16 -15 -12 -9 4 -14 1 -12 -6 6 -18 48 -21 48 -3 0 21 30 19 47 -2 14 -17 14 -17 9 0 -3 9 0 17 7 18 7 0 3 4 -8 9 -11 4 -30 6 -41 3 -24 -5 -54 28 -54 59 0 13 -8 18 -30 18 -20 0 -30 5 -30 15 0 18 30 20 31 3 0 -10 2 -10 6 0 2 6 9 10 14 6 5 -3 9 2 9 10 0 9 -4 16 -10 16 -5 0 -10 -4 -10 -10 0 -6 -9 -6 -26 0 -16 7 -23 7 -19 0 3 -6 -1 -10 -9 -10 -20 0 -20 14 -1 33 8 8 11 18 7 21 -3 4 0 11 8 16 13 8 13 11 1 22 -8 7 -11 8 -8 2 9 -15 -20 -27 -29 -12 -4 6 -3 8 2 5 5 -3 10 3 10 14 0 10 -6 19 -13 19 -7 0 -12 -3 -12 -7 3 -19 -2 -27 -9 -16 -5 8 -13 9 -22 3 -13 -9 -13 -10 0 -10 46 -1 48 -50 3 -50 -19 0 -24 4 -19 16 4 10 2 13 -6 8 -8 -5 -9 -2 -5 10 6 14 3 17 -9 12 -8 -3 -22 -6 -30 -6 -9 0 -12 -4 -9 -10 3 -5 15 -10 26 -10 12 0 19 -7 18 -17 0 -11 -3 -13 -6 -5 -2 6 -10 12 -17 12 -7 0 -23 9 -36 20 -13 11 -27 20 -32 20 -5 0 -6 5 -3 10 3 6 1 10 -4 10 -16 0 -13 -20 3 -26 8 -3 12 -12 9 -20 -7 -20 -23 -18 -23 3 0 15 -2 15 -14 -2 -13 -20 -31 -74 -28 -87 1 -5 -3 -8 -9 -8 -6 0 -9 9 -6 20 6 25 -8 26 -23 3 -9 -15 -10 -14 -4 6 4 17 3 22 -7 19 -8 -3 -13 -14 -12 -24 1 -10 0 -13 -3 -6 -6 13 -34 17 -34 4 0 -12 54 -40 68 -35 6 3 12 -2 12 -11 0 -22 40 -42 50 -26 5 7 14 10 22 7 8 -3 21 -1 29 4 11 7 9 9 -8 9 -16 0 -21 4 -17 15 4 8 10 15 16 15 5 0 7 -4 3 -10 -3 -5 9 -8 30 -6 19 1 35 -1 35 -6 0 -4 -9 -8 -21 -8 -15 0 -19 -5 -14 -19 3 -12 0 -21 -10 -24 -8 -4 -14 -3 -14 1 3 19 -2 25 -11 12 -6 -10 -10 -11 -10 -2 0 6 -4 12 -10 12 -19 0 -10 -17 15 -28 21 -10 32 -9 58 5 18 9 26 18 20 20 -10 4 -9 9 3 20 8 8 18 12 22 9 3 -4 1 -11 -7 -15 -7 -5 -12 -11 -12 -15 3 -18 -1 -24 -21 -35 -14 -7 -16 -9 -5 -6 22 6 54 -20 34 -28 -6 -3 -2 -6 10 -6 12 -1 23 -6 25 -13 3 -7 7 -6 11 5 4 11 1 17 -7 17 -14 0 -43 47 -34 55 10 11 48 14 48 4 0 -5 -8 -9 -17 -10 -11 0 -13 -3 -5 -6 6 -2 10 -9 7 -13 -6 -10 34 -36 48 -32 5 1 6 -2 2 -8 -3 -5 -1 -19 5 -31 7 -11 10 -22 8 -24 -8 -8 -296 140 -357 183 -123 87 -311 258 -311 283 0 15 18 10 24 -7 4 -11 14 -15 31 -12 14 3 25 4 25 2 0 -1 3 -10 7 -19 5 -15 3 -16 -15 -6 -18 10 -21 9 -16 -4 4 -8 10 -16 15 -16 5 -1 14 -3 19 -4 6 -1 13 -3 18 -4 4 -1 0 -6 -8 -11 -13 -8 -12 -10 3 -10 19 0 23 25 6 35 -6 4 -8 14 -5 22 3 8 1 11 -4 8 -6 -3 -10 1 -10 10 0 9 4 14 9 11 5 -3 11 1 15 9 3 8 1 17 -4 20 -6 4 -10 1 -10 -5 0 -6 -5 -8 -12 -4 -6 4 -8 3 -5 -3 4 -6 0 -14 -9 -17 -24 -9 -44 -7 -44 4 0 6 3 9 8 9 19 -3 33 2 27 11 -3 6 0 10 7 11 10 0 10 2 -1 6 -11 5 -11 7 0 14 11 7 11 9 -2 9 -9 0 -19 -9 -22 -21 -5 -18 -8 -19 -26 -7 -12 7 -21 18 -21 25 0 7 -4 13 -10 13 -5 0 -10 6 -10 14 0 8 -9 17 -20 21 -16 5 -18 9 -8 25 11 17 14 17 40 4 16 -8 25 -20 22 -28 -4 -10 2 -12 23 -8 24 5 25 6 8 13 -14 6 -9 7 17 6 21 -1 38 -6 38 -11 0 -5 8 -2 18 7 23 21 36 22 28 2 -3 -8 -1 -15 4 -15 6 0 10 5 10 11 0 6 9 9 20 6 11 -3 23 -1 26 4 3 6 11 5 20 -2 9 -7 14 -8 14 -1 0 6 -9 14 -21 17 -16 5 -18 10 -9 20 13 15 6 35 -12 35 -7 0 -6 -5 1 -14 8 -10 9 -16 1 -21 -5 -3 -10 -1 -10 4 0 6 -8 11 -17 10 -11 0 -13 -3 -5 -6 6 -2 10 -9 6 -14 -3 -5 2 -9 10 -9 9 0 16 -4 16 -9 0 -4 -11 -6 -25 -3 -14 2 -25 7 -25 11 0 4 -9 7 -20 7 -13 0 -19 -5 -16 -13 3 -7 2 -13 -2 -13 -4 0 -13 14 -19 30 -6 17 -16 30 -22 30 -16 0 -13 -17 4 -24 8 -3 15 -13 15 -22 0 -13 -6 -10 -26 12 -16 17 -22 30 -15 32 6 2 16 13 23 25 l11 22 -23 -20 c-21 -18 -23 -18 -17 -2 4 11 3 16 -4 12 -6 -4 -8 -13 -5 -21 6 -17 1 -17 -24 -4 -15 8 -19 5 -25 -17 -5 -21 -8 -24 -16 -12 -6 10 -9 11 -9 1 0 -7 -4 -11 -9 -7 -6 3 -15 -3 -20 -14 -8 -14 -7 -22 4 -31 8 -7 12 -16 9 -21 -3 -5 3 -6 12 -2 11 4 15 3 10 -5 -8 -14 23 -52 44 -52 11 -1 10 -3 -4 -12 -16 -9 -23 -7 -38 13 -10 13 -22 29 -26 34 -4 6 -21 28 -37 50 -17 22 -34 43 -40 47 -5 4 -6 8 -2 8 4 0 -4 16 -19 35 -14 19 -23 35 -19 35 4 0 2 6 -4 13 -6 8 -8 17 -4 20 3 4 1 7 -5 7 -7 0 -12 6 -12 14 0 7 -10 35 -22 62 -11 27 -20 51 -19 53 2 2 -3 7 -10 12 -7 4 -12 21 -12 38 0 16 -4 28 -8 25 -10 -6 -22 53 -13 67 5 8 3 9 -6 4 -10 -6 -12 -3 -8 13 4 12 2 25 -3 28 -5 3 -8 21 -6 39 2 19 0 32 -4 29 -5 -3 -7 13 -4 35 4 29 2 41 -7 41 -9 0 -8 3 2 10 10 7 11 10 2 10 -19 0 -8 206 18 325 27 121 83 268 139 360 41 66 50 92 31 80 -5 -3 -10 -2 -10 4 0 17 -32 42 -47 36 -11 -3 -13 -1 -9 10 7 18 -5 20 -23 3 -10 -9 -12 -10 -7 -1 4 7 -2 17 -14 23 -12 6 -20 7 -20 1 0 -5 6 -12 13 -14 6 -3 0 -6 -14 -6 -17 -1 -30 -10 -39 -26 -12 -23 -14 -23 -26 -7 -8 10 -9 21 -3 27 12 13 11 55 -2 55 -5 0 -7 -5 -3 -12 5 -8 2 -9 -9 -5 -10 3 -17 2 -17 -3 0 -5 7 -10 16 -12 14 -3 14 -6 -5 -28 -18 -21 -22 -23 -31 -10 -8 11 -9 7 -4 -15 8 -35 14 -45 14 -23 0 9 7 18 15 22 8 3 15 3 15 0 0 -3 -7 -12 -15 -20 -23 -23 -18 -40 5 -19 11 10 23 15 27 12 3 -4 1 -7 -6 -7 -8 0 -11 -7 -7 -15 11 -29 -34 -17 -47 13 -14 32 -27 43 -41 35 -5 -4 -1 -10 10 -14 15 -6 16 -8 2 -8 -12 -1 -15 -7 -10 -23 5 -21 6 -21 13 -2 7 17 8 17 8 -4 1 -16 -4 -23 -16 -21 -10 1 -25 1 -33 0 -13 -1 -13 -2 0 -11 8 -5 24 -7 35 -4 19 5 19 4 2 -9 -17 -14 -16 -15 3 -20 13 -3 20 0 20 10 0 8 4 12 10 8 5 -3 7 -12 4 -20 -3 -8 9 -27 28 -45 68 -64 5 -21 -262 179 -30 23 -113 86 -185 139 -71 54 -175 133 -230 175 -55 43 -138 106 -184 140 -46 34 -91 68 -100 74 -10 8 -12 15 -6 20 6 5 23 26 40 48 16 22 53 70 82 108 l54 67 67 -53 c37 -29 135 -105 217 -168z m-530 -769 c105 -23 375 -81 600 -130 226 -48 426 -93 445 -98 l35 -9 -42 -4 c-23 -2 -39 -1 -37 2 2 4 -6 7 -19 7 -12 0 -33 3 -46 7 -17 6 -22 5 -17 -3 4 -6 -1 -10 -13 -9 -14 1 -17 5 -11 12 7 8 -1 11 -25 11 -19 -1 -35 -5 -35 -11 0 -6 -4 -5 -8 1 -4 6 -27 15 -52 18 -42 6 -44 6 -26 -9 11 -8 28 -13 37 -10 18 6 40 -16 23 -22 -5 -2 -15 -7 -23 -12 -17 -11 -5 -52 14 -45 7 3 16 -1 21 -8 4 -7 4 -10 -1 -6 -4 4 -27 -4 -51 -17 -24 -14 -44 -20 -44 -15 0 5 -7 7 -15 4 -8 -4 -21 -2 -28 3 -19 14 -67 16 -67 3 0 -8 -9 -10 -25 -6 -14 4 -25 2 -25 -4 0 -5 11 -12 24 -16 13 -3 26 -14 29 -23 2 -10 17 -21 33 -24 40 -7 44 1 6 14 -21 7 -32 18 -32 30 0 10 5 19 10 19 6 0 10 -9 10 -20 0 -13 7 -20 19 -20 10 0 22 -8 25 -17 6 -15 8 -15 16 -3 8 13 10 13 10 0 0 -20 39 -24 46 -5 3 8 13 11 22 8 13 -6 13 -8 -4 -14 -22 -8 -11 -14 49 -24 20 -3 37 -10 37 -14 0 -5 -19 -4 -42 1 -24 5 -155 31 -293 58 -240 47 -546 110 -630 129 -22 6 -73 17 -112 27 -40 9 -73 21 -73 28 0 6 11 58 25 116 14 58 27 115 30 128 4 16 11 22 23 18 9 -3 103 -24 207 -46z m6271 -91 c17 -74 28 -135 25 -136 -3 -2 -91 -21 -196 -43 -104 -21 -266 -56 -360 -75 -93 -20 -181 -39 -195 -41 -14 -2 -56 -11 -95 -19 -180 -36 -297 -56 -303 -51 -3 3 4 6 16 6 26 0 28 8 5 25 -17 13 -11 51 7 40 5 -3 10 -1 10 4 0 6 -5 11 -12 11 -6 0 -9 2 -6 5 11 11 37 -7 31 -21 -3 -9 -12 -13 -19 -10 -17 7 -18 -6 -2 -22 17 -17 53 -15 68 3 7 8 17 15 23 15 6 0 2 -7 -9 -15 -22 -17 -3 -21 26 -5 22 12 16 42 -6 33 -9 -3 -14 1 -14 12 0 10 -5 15 -13 12 -8 -3 -14 0 -15 6 0 7 -3 23 -6 37 -5 18 -4 20 2 7 7 -17 9 -17 21 -3 10 12 10 16 2 16 -7 0 -10 4 -6 9 3 5 1 12 -4 15 -5 4 -12 2 -16 -3 -6 -11 -35 -3 -35 10 0 4 6 6 13 4 6 -3 19 0 27 5 13 9 12 12 -5 26 -19 15 -19 15 7 9 15 -4 35 -2 45 5 16 10 14 11 -9 7 -28 -4 -39 7 -15 16 6 2 0 4 -15 3 -16 0 -28 -4 -28 -8 0 -5 -13 -8 -30 -8 -24 0 -30 -4 -31 -22 l-2 -23 -4 23 c-4 22 -14 28 -26 15 -4 -3 -1 -13 6 -21 10 -12 6 -12 -20 1 -20 11 -34 13 -38 7 -4 -6 -30 -9 -58 -8 -29 1 -65 -1 -82 -5 -21 -6 -27 -5 -20 2 6 6 31 15 55 20 25 5 160 34 300 64 140 30 399 85 575 122 176 37 334 71 350 75 17 4 34 7 40 6 5 -1 23 -63 41 -137z m-5216 -584 c0 -3 -20 -10 -45 -16 -25 -6 -45 -16 -45 -21 0 -6 -7 -8 -15 -4 -8 3 -15 0 -15 -7 0 -8 -4 -6 -10 3 -5 8 -10 10 -10 4 0 -7 -8 -14 -17 -17 -10 -2 -27 -8 -37 -13 -15 -6 -17 -4 -11 7 7 12 6 12 -7 1 -9 -7 -27 -15 -40 -16 -13 -2 -36 -10 -53 -17 -33 -16 -45 -46 -18 -45 21 1 30 -17 12 -23 -7 -2 -9 2 -5 10 4 8 2 7 -6 -2 -19 -23 -68 -34 -68 -15 0 9 7 12 20 9 11 -3 20 -1 20 5 0 13 -38 23 -45 12 -6 -10 -45 -9 -45 1 0 7 34 20 63 24 27 4 32 14 6 13 -13 -1 -29 -6 -36 -11 -7 -5 -16 -6 -21 -3 -4 3 -15 -4 -22 -14 -8 -12 -18 -16 -24 -11 -7 6 -17 3 -26 -7 -13 -14 -12 -15 3 -9 9 3 17 2 17 -4 0 -5 6 -9 13 -8 24 3 37 -1 37 -12 0 -8 -11 -9 -32 -5 l-33 6 31 -19 c17 -10 34 -29 37 -41 5 -19 2 -21 -18 -18 -16 3 -22 1 -18 -7 2 -7 15 -12 28 -11 13 0 21 4 18 9 -2 4 1 7 7 7 6 0 14 -10 19 -22 6 -18 9 -19 14 -5 4 11 -3 23 -20 37 -14 11 -23 23 -20 26 3 3 18 -6 33 -20 16 -14 25 -28 21 -32 -4 -4 -1 -14 6 -22 10 -13 9 -14 -1 -8 -9 5 -25 0 -44 -14 -17 -13 -28 -18 -24 -11 4 6 5 11 2 11 -2 0 -12 3 -21 6 -15 6 -15 4 -4 -14 10 -16 21 -20 48 -18 19 2 37 9 39 15 2 6 8 9 13 5 5 -3 9 2 9 10 0 9 5 16 11 16 6 0 9 7 5 15 -3 8 0 15 7 15 9 0 9 2 -1 9 -10 6 -10 10 2 20 8 7 12 19 9 27 -3 8 0 14 7 14 6 0 9 -4 5 -9 -3 -6 3 -14 12 -20 10 -6 13 -11 5 -11 -7 0 -17 -12 -23 -26 -12 -33 -3 -69 14 -56 12 10 67 24 102 27 11 1 30 5 43 9 13 4 22 3 22 -3 0 -5 -15 -12 -32 -16 -72 -13 -175 -36 -203 -45 -26 -7 -121 -28 -165 -36 -8 -1 -55 -12 -105 -23 -49 -11 -112 -25 -140 -30 -27 -6 -102 -22 -165 -35 -63 -14 -153 -32 -200 -41 -47 -9 -95 -18 -107 -21 -20 -4 -23 0 -23 31 0 19 -4 35 -10 35 -5 0 -7 7 -4 15 3 8 -1 28 -9 44 -11 22 -12 31 -3 35 7 3 8 7 1 13 -5 4 -11 17 -13 28 -2 11 -10 33 -18 49 -8 16 -13 30 -12 31 2 2 59 13 128 25 69 12 143 25 165 30 22 5 180 37 350 70 252 50 491 99 640 133 30 7 45 8 45 2z m4513 -119 c342 -69 641 -127 665 -131 23 -4 42 -8 42 -10 0 -1 -7 -19 -15 -39 -9 -20 -13 -41 -10 -46 4 -6 2 -10 -3 -10 -14 0 -36 -87 -36 -142 0 -43 -2 -47 -20 -43 -47 10 -263 54 -291 59 -16 3 -61 13 -100 21 -123 28 -434 95 -617 132 -98 21 -178 41 -178 46 0 4 3 6 8 4 4 -3 51 -12 105 -22 54 -9 105 -19 113 -22 8 -3 14 1 14 10 0 9 -7 14 -17 12 -10 -1 -12 0 -5 2 6 3 12 9 12 14 0 6 3 8 8 6 9 -6 33 19 25 27 -4 3 -1 6 5 6 16 0 15 -16 -3 -34 -23 -22 -19 -46 8 -45 21 0 21 1 2 9 -19 8 -19 9 3 9 16 1 22 -5 23 -21 0 -18 3 -15 13 12 15 42 11 53 -14 40 -16 -9 -18 -8 -13 6 3 10 13 14 25 10 29 -7 12 7 -25 22 -29 11 -29 12 -4 7 15 -3 27 -1 27 5 0 5 -15 10 -32 11 -27 0 -29 2 -13 8 11 5 26 6 33 4 6 -3 12 2 12 12 0 9 -3 14 -7 12 -9 -5 -28 13 -30 28 -1 5 -6 11 -12 13 -7 2 -8 -3 -4 -14 4 -12 3 -15 -5 -10 -8 5 -12 -1 -13 -16 0 -22 -1 -22 -9 -3 -5 11 -9 14 -9 7 -1 -7 -6 -10 -12 -6 -8 5 -5 11 8 18 25 15 19 49 -8 41 -14 -5 -17 -3 -13 9 7 18 -13 49 -26 41 -5 -3 -20 -1 -34 5 -18 6 -26 6 -26 -1 0 -6 -7 -3 -16 6 -10 9 -25 14 -35 12 -10 -3 -20 1 -23 9 -3 8 -13 14 -23 15 -24 1 -102 27 -85 28 7 1 293 -55 635 -123z m-213 -1616 c355 -72 584 -298 666 -656 28 -120 25 -355 -5 -499 -43 -204 -109 -334 -235 -461 -128 -128 -249 -192 -443 -236 -140 -31 -453 -31 -591 0 -51 11 -100 27 -109 34 -9 7 -18 11 -20 9 -7 -6 -133 51 -133 60 0 5 5 9 10 9 6 0 10 9 10 19 0 22 -26 36 -34 18 -2 -7 -5 -5 -5 5 -1 9 -4 24 -8 34 -4 12 -3 15 5 10 7 -4 12 -1 12 9 0 15 -3 14 -30 -2 -16 -9 -30 -22 -30 -28 0 -14 52 -43 68 -38 8 3 10 -1 6 -11 -9 -24 -22 -20 -88 31 -63 49 -147 143 -168 188 -6 14 -15 25 -20 25 -4 0 -7 3 -6 8 1 4 -8 25 -19 48 -66 125 -102 290 -110 494 -4 133 -2 169 16 256 50 243 167 423 355 548 125 84 239 124 406 145 122 16 379 6 500 -19z m-4021 -230 c124 -287 349 -818 476 -1120 59 -140 130 -310 159 -377 l52 -122 59 77 c33 42 109 142 170 221 60 79 119 155 129 170 170 227 340 440 356 444 12 3 24 -1 30 -11 5 -10 10 -12 10 -5 0 7 -10 22 -23 35 -25 25 -85 98 -245 303 -56 72 -121 152 -145 178 -23 27 -46 57 -52 66 -5 9 -21 30 -35 45 -50 59 -79 93 -163 199 l-87 107 233 0 232 -1 92 -122 c50 -67 139 -185 198 -262 59 -77 130 -170 158 -208 28 -37 54 -64 58 -60 10 11 279 359 402 521 l101 132 228 0 229 0 -53 -63 c-29 -35 -69 -83 -88 -107 -19 -24 -52 -64 -73 -89 -20 -25 -58 -71 -82 -101 -25 -30 -59 -71 -75 -91 -16 -20 -27 -39 -25 -43 3 -3 2 -4 -1 -2 -7 5 -43 -35 -99 -109 -20 -27 -50 -66 -66 -85 -124 -151 -171 -214 -161 -218 7 -2 20 -11 30 -20 15 -13 424 -540 537 -691 11 -14 50 -65 87 -113 38 -48 68 -91 68 -95 0 -5 -105 -7 -234 -5 l-234 3 -11 30 c-5 16 -8 37 -5 47 4 12 3 14 -3 4 -7 -10 -21 2 -54 45 -24 32 -46 60 -49 63 -3 3 -9 13 -15 22 -5 9 -46 70 -91 135 -44 65 -120 177 -169 248 -49 72 -90 132 -93 135 -6 7 -112 -129 -112 -145 0 -2 -29 -43 -65 -92 -80 -109 -78 -106 -90 -125 -39 -62 -79 -118 -85 -118 -4 0 -13 -14 -20 -31 -9 -20 -16 -27 -23 -20 -7 7 -6 16 4 27 9 12 10 15 2 10 -7 -4 -13 -2 -13 3 0 6 6 11 14 11 7 0 19 7 26 15 10 12 9 15 -6 15 -14 1 -10 5 11 15 30 13 30 14 7 21 -17 5 -20 9 -11 15 25 15 2 19 -27 5 -22 -12 -30 -12 -36 -3 -6 9 -10 9 -20 -1 -13 -13 -13 -13 45 -17 30 -2 51 -15 24 -15 -9 0 -17 -5 -17 -11 0 -8 -5 -7 -15 1 -9 7 -19 10 -22 6 -10 -9 19 -27 34 -21 7 2 15 0 18 -4 4 -8 -38 -22 -75 -25 -8 0 -14 -9 -14 -18 2 -18 -7 -23 -19 -11 -4 3 -1 13 7 22 15 17 5 33 -24 39 -11 3 -11 0 0 -12 7 -10 8 -16 2 -16 -6 0 -14 5 -17 10 -3 6 -11 10 -16 10 -5 0 2 -11 16 -25 30 -31 32 -55 5 -55 -13 0 -18 5 -13 16 3 8 -4 25 -16 38 -12 12 -19 25 -16 28 3 2 -2 5 -10 5 -8 0 -11 -5 -7 -11 13 -21 11 -38 -4 -32 -8 3 -13 2 -10 -3 3 -5 -3 -11 -14 -14 -25 -6 -26 11 -2 29 16 13 16 14 -1 8 -10 -4 -23 -18 -28 -31 -14 -37 -11 -48 9 -30 23 21 42 22 42 3 0 -8 5 -18 11 -22 8 -5 10 1 6 18 -7 26 13 55 26 41 11 -10 8 -25 -3 -18 -6 3 -9 -4 -8 -17 2 -20 6 -23 35 -20 21 3 33 0 33 -7 0 -7 5 -9 10 -6 6 3 10 -1 10 -9 0 -10 6 -13 15 -9 22 8 13 26 -15 33 -20 5 -21 7 -6 19 11 10 16 10 16 2 0 -7 5 -9 12 -5 7 4 8 3 4 -4 -10 -16 7 -15 23 1 11 10 12 8 6 -13 -4 -13 -14 -30 -22 -38 -20 -20 -83 -120 -83 -132 0 -6 -84 -10 -223 -10 -160 0 -226 -3 -235 -12 -9 -9 -12 -9 -12 0 0 9 -50 12 -195 12 l-195 0 -11 45 c-6 25 -15 45 -20 45 -5 0 -9 8 -9 17 0 23 -22 83 -31 83 -4 0 -10 17 -14 38 -4 20 -16 52 -27 70 -11 17 -17 32 -13 32 3 0 3 6 -2 13 -4 6 -8 14 -9 17 0 3 -6 17 -12 33 l-12 27 -302 1 c-167 0 -363 0 -436 -1 -73 -1 -137 2 -142 5 -7 4 -6 13 0 26 9 15 7 19 -5 19 -9 0 -14 4 -11 9 3 5 -1 11 -8 14 -8 3 -17 1 -20 -6 -3 -9 -7 -8 -15 3 -5 8 -14 11 -18 6 -4 -5 -2 -11 5 -13 6 -3 9 -9 6 -15 -4 -6 2 -5 15 1 12 7 21 8 21 2 0 -5 -6 -12 -12 -15 -7 -3 -3 -3 9 0 18 4 22 2 17 -10 -3 -9 -10 -13 -16 -10 -13 8 -80 -25 -73 -37 4 -5 1 -9 -4 -9 -6 0 -12 10 -12 23 -1 18 -2 18 -6 4 -5 -18 -5 -18 -18 -1 -9 12 -10 26 -4 41 5 14 5 23 -1 23 -6 0 -10 -8 -10 -18 0 -15 -6 -17 -36 -14 -19 2 -33 7 -30 9 3 3 1 14 -5 24 -12 24 -1 25 17 2 7 -10 14 -13 14 -7 0 6 -7 17 -15 24 -11 9 -19 8 -37 -4 -25 -18 -63 -22 -53 -6 3 6 15 10 26 10 10 0 19 6 19 14 0 8 6 17 13 19 9 4 9 6 -1 6 -7 1 -15 -6 -18 -14 -6 -15 -25 -21 -23 -7 4 26 -2 31 -20 15 -11 -9 -17 -22 -14 -30 3 -8 0 -19 -8 -24 -11 -7 -9 -13 12 -33 15 -14 31 -22 35 -18 5 4 2 -1 -5 -10 -13 -18 -5 -24 14 -10 20 14 14 30 -15 42 -17 7 -30 17 -30 23 0 7 4 7 12 -1 7 -7 17 -8 28 -2 26 14 42 -21 24 -55 -18 -35 -19 -33 14 -37 15 -2 27 -8 27 -15 0 -6 4 -15 9 -20 5 -4 6 -3 2 4 -6 11 4 12 57 4 5 0 5 -6 2 -11 -4 -6 -16 -8 -28 -5 -22 6 -22 6 -2 -10 11 -9 21 -12 23 -6 2 5 11 8 20 6 9 -1 11 0 4 2 -7 3 -10 8 -7 12 2 5 -7 19 -20 31 -23 22 -25 22 -26 4 0 -10 -3 -13 -6 -6 -2 6 -9 10 -14 6 -5 -3 -9 -2 -9 1 0 10 43 44 55 45 6 0 3 -5 -5 -10 -13 -9 -13 -11 0 -19 8 -5 18 -8 22 -5 9 6 52 -16 45 -23 -3 -2 -16 1 -29 8 -23 12 -23 12 -5 -9 11 -11 25 -18 33 -15 17 6 19 33 2 34 -9 0 -9 2 1 6 11 5 11 7 0 15 -10 7 -8 8 8 5 12 -3 21 0 20 5 -1 6 4 13 11 15 6 3 10 -1 9 -9 -2 -7 -2 -10 0 -5 7 12 33 8 33 -5 0 -20 -24 -78 -32 -78 -4 0 -8 -6 -8 -12 0 -7 -11 -35 -24 -63 -13 -27 -30 -69 -37 -93 -8 -28 -17 -41 -26 -38 -7 3 -13 -1 -13 -10 0 -8 5 -12 10 -9 6 3 10 2 10 -4 0 -5 -5 -13 -10 -16 -6 -4 -8 -11 -5 -16 4 -5 -7 -9 -24 -9 -16 0 -33 -4 -36 -10 -3 -5 -14 -10 -23 -10 -11 0 -13 3 -6 8 13 8 14 42 2 42 -5 0 -6 4 -3 10 3 5 0 7 -9 4 -14 -6 -34 32 -22 43 3 4 6 -1 6 -10 0 -9 5 -17 10 -17 6 0 8 12 5 28 -3 15 -2 21 1 15 3 -7 10 -13 15 -13 6 0 7 6 3 13 -6 8 -3 8 9 -2 23 -18 51 -6 44 19 -3 13 0 20 8 20 7 0 22 3 32 6 15 5 15 4 3 -5 -10 -7 -11 -11 -3 -11 7 0 17 9 23 19 12 24 13 34 1 26 -18 -11 -22 15 -7 45 13 27 13 30 -3 30 -11 0 -17 -9 -19 -26 -3 -34 -10 -45 -30 -43 -35 3 -53 -1 -46 -12 3 -6 17 -8 29 -5 14 4 27 1 31 -6 5 -8 2 -9 -9 -5 -10 3 -17 2 -17 -4 0 -6 -6 -6 -19 0 -10 6 -22 7 -26 3 -5 -4 -5 -1 -1 6 5 8 -2 12 -24 12 -18 0 -29 -4 -25 -10 3 -5 1 -10 -4 -10 -10 0 -15 17 -14 48 1 10 -2 10 -14 0 -14 -11 -15 -10 -8 11 6 21 5 22 -8 10 -9 -9 -12 -18 -6 -25 6 -7 4 -16 -5 -23 -15 -13 -28 -61 -15 -61 22 0 39 14 39 33 0 20 0 21 -16 1 -15 -18 -15 -18 -4 3 14 31 30 38 30 14 0 -15 6 -21 21 -21 11 0 17 -5 14 -10 -4 -6 -12 -10 -18 -9 -18 3 -48 -12 -42 -21 3 -5 -5 -6 -17 -2 -21 5 -22 4 -8 -14 8 -10 15 -21 17 -23 1 -1 12 7 25 19 13 13 17 20 11 16 -8 -5 -11 -2 -7 7 3 9 13 13 25 10 18 -5 17 -8 -12 -34 -27 -24 -29 -29 -13 -29 16 0 17 -2 4 -10 -13 -8 -13 -10 2 -10 9 0 18 3 21 8 2 4 2 1 1 -5 -2 -7 5 -13 16 -13 11 0 20 -5 20 -10 0 -6 -7 -10 -16 -8 -10 2 -19 -3 -22 -11 -3 -10 0 -12 12 -8 9 4 16 2 16 -3 0 -6 -6 -10 -12 -11 -7 0 -25 -2 -40 -3 -14 -1 -24 2 -22 6 3 4 12 8 20 8 8 0 14 5 14 11 0 5 -5 7 -12 3 -7 -4 -8 -3 -4 5 4 6 12 9 17 6 5 -4 9 -1 9 4 0 6 -7 11 -15 11 -9 0 -18 6 -21 14 -6 15 -49 30 -76 27 -13 -2 -18 5 -18 23 0 13 -6 27 -12 30 -7 3 -4 4 7 3 14 -2 19 -9 18 -24 -2 -16 3 -20 24 -20 22 0 24 1 12 11 -9 6 -14 17 -12 24 3 6 -1 12 -9 12 -8 0 -9 3 -3 8 6 4 18 19 27 34 15 23 16 28 2 39 -8 7 -13 18 -10 25 3 7 0 15 -7 18 -7 2 -2 5 11 5 14 1 21 5 16 12 -7 12 15 31 28 23 4 -3 8 -13 8 -22 0 -15 -2 -15 -10 -2 -8 13 -10 12 -10 -4 0 -12 5 -16 15 -12 9 3 15 0 15 -9 0 -7 9 -17 21 -20 15 -5 18 -10 9 -20 -9 -11 -4 -13 30 -10 43 4 54 9 56 26 1 5 2 12 3 15 0 4 8 1 16 -6 9 -7 15 -8 15 -2 0 5 -11 17 -24 25 -21 14 -23 14 -22 0 0 -9 -5 -18 -12 -20 -8 -3 -10 1 -6 14 6 16 5 16 -9 -2 -11 -14 -12 -24 -5 -32 7 -9 7 -13 0 -13 -14 0 -33 26 -25 34 4 4 0 4 -9 1 -9 -4 -19 -2 -23 4 -4 7 5 11 22 11 l28 0 -25 13 c-15 8 -28 9 -31 4 -4 -5 -6 3 -6 17 0 26 0 26 18 10 18 -16 19 -16 19 0 0 9 -4 14 -10 11 -9 -6 -12 1 -9 22 0 3 -6 10 -15 15 -9 5 -16 14 -16 20 0 11 -29 37 -42 38 -4 0 -6 -9 -5 -20 1 -12 7 -18 14 -16 19 8 16 -4 -4 -21 -17 -13 -16 -13 3 -4 24 12 57 -4 36 -17 -7 -5 -28 -8 -47 -7 -19 0 -35 -3 -35 -7 0 -4 7 -8 15 -8 9 0 12 -6 8 -16 -3 -8 -12 -13 -19 -10 -16 6 -19 -10 -4 -19 18 -11 11 -27 -10 -22 -11 3 -20 1 -20 -4 0 -5 9 -9 19 -9 11 0 22 -4 25 -8 3 -5 -8 -6 -25 -4 -17 3 -29 0 -29 -7 0 -6 11 -11 24 -11 28 0 42 -15 25 -26 -8 -4 -9 -3 -5 4 4 7 1 12 -8 12 -10 0 -13 -6 -10 -15 4 -8 1 -15 -5 -15 -6 0 -11 7 -11 15 0 8 -5 15 -11 15 -6 0 -8 -9 -4 -20 4 -14 2 -20 -9 -20 -10 0 -13 6 -10 18 5 14 4 14 -4 2 -8 -10 -8 -18 -1 -27 6 -7 8 -17 4 -24 -6 -8 -10 -7 -17 2 -6 10 -7 7 -3 -10 5 -15 3 -21 -3 -17 -6 3 -16 -10 -22 -30 -13 -38 -6 -58 11 -34 9 12 10 11 5 -4 -4 -12 -2 -17 7 -13 7 3 21 -1 30 -8 16 -12 16 -13 -2 -18 -11 -3 -25 1 -32 9 -15 19 -34 18 -50 -3 -12 -15 -12 -16 4 -10 9 3 17 3 17 -1 0 -4 36 -7 79 -7 50 0 77 4 74 10 -3 6 0 4 8 -2 17 -16 121 -17 137 -1 7 7 12 9 12 4 0 -4 7 0 16 8 8 9 21 16 27 16 8 0 8 -3 -1 -9 -8 -4 -13 -11 -12 -15 5 -21 -23 -25 -201 -28 l-197 -3 18 46 c10 25 175 410 366 855 191 445 359 837 373 872 l26 62 223 -2 223 -3 88 -205z m595 -2234 c34 -14 76 -59 76 -82 0 -24 -50 -16 -72 11 -24 30 -87 35 -113 8 -42 -41 -48 -131 -12 -184 20 -30 28 -34 67 -34 41 0 46 3 63 35 l17 35 -40 3 c-35 3 -40 6 -40 28 0 23 2 24 69 24 l70 0 -6 -47 c-11 -94 -52 -133 -138 -133 -99 0 -139 50 -140 171 0 66 3 81 27 117 38 57 105 76 172 48z m1578 4 c37 -11 78 -51 78 -76 0 -23 -56 -17 -72 8 -27 41 -113 20 -106 -25 2 -15 21 -27 68 -44 69 -25 120 -69 120 -104 0 -28 -27 -77 -49 -89 -11 -5 -46 -10 -78 -10 -66 0 -95 15 -118 61 l-16 29 34 0 c21 0 41 -8 52 -20 20 -23 83 -28 103 -8 27 27 14 55 -35 78 -100 44 -118 56 -131 83 -19 40 10 97 58 114 44 15 47 15 92 3z m407 -18 c49 -36 65 -69 69 -141 5 -80 -20 -141 -68 -166 -42 -22 -128 -19 -168 5 -79 48 -97 195 -33 270 49 58 145 74 200 32z m1577 2 c94 -62 91 -251 -5 -307 -41 -25 -122 -24 -164 0 -41 24 -77 94 -77 152 0 45 29 119 55 141 48 40 141 46 191 14z m746 2 c10 -6 24 -24 32 -41 15 -30 15 -30 -15 -33 -20 -2 -35 3 -47 17 -27 32 -66 37 -92 11 -19 -19 -20 -24 -8 -42 8 -11 43 -31 78 -44 76 -27 100 -52 100 -103 0 -62 -38 -91 -118 -91 -75 0 -132 34 -132 79 0 20 64 12 78 -9 18 -29 85 -28 106 2 23 32 3 56 -68 82 -78 29 -106 55 -106 100 0 38 18 62 65 82 32 15 96 10 127 -10z m-6442 -156 l0 -170 -30 0 -30 0 0 170 0 170 30 0 30 0 0 -170z m250 52 l75 -117 3 118 3 117 29 0 30 0 0 -170 0 -170 -30 0 c-28 0 -37 10 -108 120 -42 66 -79 120 -82 120 -3 0 -4 -54 -2 -120 l3 -120 -30 0 -31 0 0 170 0 170 33 0 c30 0 37 -7 107 -118z m490 93 c0 -23 -3 -25 -50 -25 l-50 0 0 -145 0 -145 -30 0 -29 0 -3 143 -3 142 -46 3 c-41 3 -47 6 -52 28 l-4 24 133 0 134 0 0 -25z m310 0 c0 -25 -1 -25 -80 -25 l-80 0 0 -45 0 -45 80 0 c79 0 80 0 80 -25 0 -25 -1 -25 -81 -25 l-80 0 3 -47 3 -48 82 -3 c79 -3 83 -4 79 -25 -3 -21 -8 -22 -114 -25 l-112 -3 0 171 0 170 110 0 110 0 0 -25z m162 -117 l3 -143 78 2 77 1 0 -29 0 -29 -110 0 -110 0 0 170 0 170 30 0 29 0 3 -142z m308 3 c0 -102 3 -140 13 -144 6 -2 42 -4 80 -2 l67 2 0 -29 0 -28 -110 0 -110 0 0 170 0 170 30 0 30 0 0 -139z m310 -31 l0 -170 -30 0 -30 0 0 170 0 170 30 0 30 0 0 -170z m710 145 c0 -25 -1 -25 -78 -25 l-77 0 3 -45 4 -45 74 0 c72 0 74 -1 74 -25 0 -24 -2 -25 -75 -25 l-75 0 0 -51 0 -51 75 4 75 3 0 -27 0 -28 -105 0 c-58 0 -105 1 -106 3 0 1 -3 77 -5 170 l-4 167 110 0 110 0 0 -25z m240 -91 l75 -117 3 117 3 116 29 0 30 0 0 -171 0 -170 -32 3 c-28 3 -39 14 -102 115 -39 62 -74 112 -78 113 -5 0 -8 -52 -8 -115 l0 -115 -30 0 -30 0 0 170 0 170 33 0 c30 0 37 -7 107 -116z m500 91 c0 -23 -3 -25 -50 -25 l-50 0 0 -145 0 -145 -33 0 -33 0 3 145 3 145 -55 0 c-52 0 -55 1 -55 25 l0 25 135 0 135 0 0 -25z m1070 -119 l0 -144 28 1 c15 0 51 -1 80 -2 48 -1 52 -3 52 -26 l0 -25 -110 0 -110 0 0 170 0 170 30 0 30 0 0 -144z m290 19 c0 -112 2 -127 20 -145 24 -24 77 -26 102 -3 16 14 18 33 18 145 l0 128 30 0 30 0 0 -129 c0 -71 -4 -141 -10 -155 -14 -39 -52 -57 -113 -57 -65 0 -114 22 -127 57 -6 14 -10 84 -10 155 l0 129 30 0 30 0 0 -125z m560 100 c0 -23 -3 -25 -50 -25 l-50 0 0 -145 0 -145 -30 0 -30 0 0 145 0 145 -52 0 c-50 0 -53 2 -53 25 l0 25 133 0 132 0 0 -25z m150 -145 l0 -170 -30 0 -30 0 0 170 0 170 30 0 30 0 0 -170z m651 56 c41 -63 76 -115 79 -115 3 -1 4 51 2 114 l-4 115 36 0 36 0 0 -170 0 -170 -32 0 c-31 0 -38 8 -108 116 -41 64 -77 117 -80 119 -3 2 -3 -50 -2 -116 l4 -119 -31 0 -31 0 0 170 0 170 29 0 c26 0 36 -12 102 -114z"/>
<path d="M5038 7735 c-2 -1 -48 -5 -103 -8 -112 -7 -208 -20 -305 -41 -93 -20 -275 -73 -324 -95 -22 -11 -58 -26 -79 -35 -79 -32 -235 -127 -313 -190 -191 -153 -312 -324 -376 -528 -19 -62 -23 -95 -22 -213 0 -153 9 -206 54 -323 137 -355 482 -630 945 -752 657 -174 1404 -44 1813 315 238 209 365 461 366 730 1 99 -6 186 -17 215 -3 8 -11 35 -17 60 -29 109 -147 297 -253 403 -58 57 -236 197 -250 197 -4 0 -29 13 -55 30 -170 104 -489 199 -757 225 -68 6 -302 14 -307 10z m-678 -731 c96 -29 166 -88 218 -188 23 -45 27 -63 27 -146 0 -82 -4 -103 -27 -152 -90 -193 -357 -259 -527 -130 -58 45 -66 54 -102 127 -22 45 -28 68 -24 93 4 20 2 32 -3 28 -22 -13 -1 120 28 179 80 164 243 239 410 189z m1734 -17 c69 -32 136 -100 173 -175 23 -49 27 -70 28 -147 0 -82 -3 -96 -33 -157 -37 -75 -87 -123 -167 -160 -41 -18 -68 -22 -145 -23 -88 0 -100 3 -156 32 -172 89 -238 297 -150 471 45 90 104 141 204 179 56 21 178 11 246 -20z"/>
<path d="M3740 5758 c0 -19 -27 -31 -33 -15 -3 9 -8 9 -17 0 -9 -8 -7 -12 9 -18 11 -3 25 -3 31 0 5 3 10 2 10 -4 0 -5 -8 -15 -17 -21 -15 -9 -14 -10 7 -4 22 6 23 5 11 -9 -14 -18 -44 -9 -54 15 -4 8 -6 7 -6 -4 -1 -9 5 -18 12 -21 6 -2 9 -7 6 -11 -10 -10 -56 18 -51 32 2 6 -1 12 -7 12 -14 0 -14 -27 -1 -35 6 -3 10 -11 10 -17 0 -6 -7 -6 -17 2 -10 8 -2 -3 17 -22 29 -29 36 -32 41 -19 4 9 5 19 3 22 -2 4 3 13 12 20 13 11 14 9 8 -17 -7 -31 -7 -31 -5 -54 1 -13 3 -13 10 -1 5 8 7 21 4 30 -2 9 2 5 10 -9 10 -16 12 -27 5 -31 -17 -10 5 -17 27 -8 11 4 14 8 8 8 -18 1 -16 21 2 21 8 0 15 -7 15 -15 0 -9 9 -14 29 -12 17 1 27 7 24 14 -3 7 -2 17 1 22 8 12 36 3 36 -11 0 -6 -7 -8 -14 -5 -10 4 -13 1 -9 -9 3 -7 11 -14 19 -14 17 0 19 -17 2 -22 -7 -3 -3 -7 9 -10 17 -5 21 -2 19 17 -2 12 -6 27 -10 33 -4 7 0 21 8 33 8 12 12 28 9 35 -3 8 1 14 10 14 9 0 18 4 21 9 3 4 -5 7 -17 7 -12 -1 -28 2 -34 7 -9 6 -13 5 -13 -2 0 -6 -5 -11 -11 -11 -6 0 -8 9 -4 20 3 11 2 20 -3 20 -5 0 -12 -11 -14 -25 -4 -19 -1 -25 13 -25 9 0 19 -3 22 -7 2 -5 2 -2 1 5 -2 6 1 12 7 12 18 0 5 -55 -13 -58 -10 -2 -18 2 -18 8 0 6 4 8 10 5 5 -3 7 0 4 9 -3 8 -12 12 -19 10 -8 -3 -11 -12 -9 -19 3 -7 1 -16 -5 -20 -6 -3 -11 0 -11 7 0 10 -2 10 -9 -1 -5 -8 -19 -12 -35 -9 -14 3 -26 1 -26 -4 0 -5 -5 -6 -10 -3 -14 9 -1 27 15 21 8 -3 15 0 17 5 2 6 12 11 23 13 10 1 21 8 23 14 2 8 -12 12 -44 12 -57 0 -48 17 13 22 7 1 9 6 6 11 -4 6 0 8 10 4 8 -3 18 0 21 8 3 10 0 12 -11 8 -11 -4 -14 -2 -9 5 4 7 2 12 -3 12 -6 0 -11 -7 -11 -15 0 -14 -4 -17 -32 -19 -6 -1 -13 12 -15 29 -5 33 -13 48 -13 23z"/>
<path d="M6207 5723 c-4 -3 -7 -13 -7 -22 0 -14 2 -14 10 -1 8 13 10 13 10 -2 0 -11 5 -15 14 -12 9 4 13 -2 11 -19 -4 -34 -26 -66 -42 -60 -11 4 -10 9 4 20 17 13 16 13 -4 4 -29 -14 -33 -14 -33 4 0 8 -4 15 -10 15 -5 0 -10 -4 -10 -10 0 -5 -7 -10 -15 -10 -8 0 -15 -4 -15 -10 0 -5 7 -7 15 -4 8 4 15 1 15 -5 0 -6 -9 -11 -19 -11 -21 0 -39 39 -23 49 6 4 5 11 -4 18 -15 15 -27 2 -18 -20 3 -8 1 -18 -5 -22 -6 -3 -11 -2 -11 3 0 6 -9 8 -20 5 -11 -3 -20 -10 -20 -15 0 -5 9 -6 20 -3 12 4 20 2 20 -5 0 -7 7 -10 15 -7 8 4 17 2 20 -3 9 -15 -12 -20 -42 -9 -23 8 -26 8 -15 -3 7 -7 18 -13 25 -13 7 -1 11 -6 9 -13 -1 -7 -4 -22 -6 -34 -1 -12 -11 -25 -22 -29 -17 -7 -16 -8 5 -8 19 -1 21 -4 12 -15 -6 -7 -25 -16 -41 -20 -17 -3 -30 -10 -30 -16 0 -7 7 -7 21 0 11 7 23 9 26 6 4 -3 12 -1 19 5 7 6 14 6 18 1 7 -12 -22 -25 -35 -16 -17 10 -9 -5 13 -26 12 -11 18 -23 15 -27 -4 -3 -7 -1 -7 5 0 7 -5 12 -11 12 -6 0 -8 -7 -5 -15 3 -9 -1 -18 -9 -21 -8 -4 -15 -14 -15 -23 0 -12 -2 -13 -9 -3 -7 11 -11 10 -24 -3 -9 -8 -14 -22 -11 -30 5 -12 9 -12 29 1 13 9 29 13 35 9 5 -3 10 -1 10 4 0 6 18 19 41 27 25 10 36 20 29 24 -8 5 -4 9 9 13 12 3 19 1 15 -4 -8 -14 10 -11 32 5 10 8 15 18 11 22 -4 5 -12 2 -17 -6 -8 -12 -10 -11 -10 5 0 12 -3 16 -8 9 -4 -6 -15 -8 -25 -5 -17 6 -17 8 -4 20 13 10 23 8 59 -9 l43 -20 27 20 c15 11 32 20 38 20 5 0 10 3 10 8 0 4 14 15 30 24 17 10 30 21 29 25 -3 19 2 27 10 15 6 -11 14 -8 36 12 15 14 36 28 47 32 11 3 17 8 14 12 -4 3 8 12 25 19 18 7 29 18 26 25 -7 21 -17 64 -11 51 3 -7 13 -13 22 -13 13 0 14 -2 3 -9 -7 -5 -9 -11 -5 -14 5 -3 15 1 21 9 8 8 9 15 3 19 -6 3 -10 11 -10 17 0 7 4 7 13 0 8 -7 18 -7 27 -2 12 8 10 10 -8 10 -13 0 -21 4 -18 9 3 5 -1 14 -9 21 -13 11 -14 10 -9 -3 3 -9 1 -24 -5 -34 -6 -10 -11 -12 -11 -5 0 17 -27 15 -34 -3 -3 -8 -1 -15 4 -15 6 0 10 -4 10 -9 0 -6 -9 -9 -20 -8 -12 1 -18 7 -16 14 3 7 3 20 -1 28 -5 14 -7 14 -23 0 -10 -9 -21 -15 -26 -14 -16 4 -64 -13 -64 -22 0 -10 9 -12 66 -10 39 1 42 -1 40 -24 0 -14 -7 -25 -13 -25 -7 0 -20 -11 -29 -25 -9 -14 -21 -22 -27 -18 -6 4 -7 1 -2 -7 6 -10 4 -12 -9 -7 -10 4 -21 7 -24 7 -4 0 0 5 8 10 13 9 13 10 0 10 -13 0 -13 1 0 10 13 9 13 12 -3 24 -15 12 -15 14 -2 19 18 7 39 -28 29 -46 -5 -7 -1 -7 10 2 13 11 14 16 4 22 -9 6 -4 9 15 9 19 0 27 5 27 18 0 13 -2 14 -9 3 -5 -7 -11 -9 -14 -5 -3 5 -25 9 -49 9 -42 -1 -53 -6 -99 -47 -10 -10 -23 -18 -29 -18 -5 0 -6 -7 -3 -17 4 -9 2 -14 -3 -10 -6 3 -16 1 -24 -5 -12 -8 -12 -9 2 -4 10 3 20 1 23 -4 3 -5 -5 -10 -17 -12 -28 -4 -21 -24 7 -21 18 2 18 1 4 -10 -12 -9 -14 -19 -8 -37 8 -22 8 -23 -5 -7 -7 9 -19 17 -27 17 -11 0 -11 2 1 10 8 5 11 13 6 17 -4 4 -14 0 -21 -10 -8 -12 -15 -14 -20 -8 -3 6 -22 11 -41 11 -19 0 -34 4 -34 9 0 6 9 8 20 6 13 -2 20 2 20 11 0 8 5 14 10 14 6 0 9 3 9 8 -3 19 2 33 10 28 5 -3 7 -15 4 -26 -3 -11 0 -20 6 -20 6 0 11 12 11 26 0 20 4 25 23 22 19 -3 22 1 21 30 -1 17 2 32 8 32 5 0 7 4 4 8 -3 5 4 19 15 30 11 12 15 22 9 22 -5 0 -10 5 -10 11 0 9 16 7 59 -9 10 -4 11 1 6 19 -10 33 -13 35 -37 20 -17 -11 -22 -11 -29 1 -5 7 -9 9 -9 3 0 -5 -7 -2 -14 7 -7 10 -16 15 -19 11z"/>
<path d="M6021 5551 c-6 -10 -7 -21 -4 -25 3 -3 1 -6 -6 -6 -8 0 -11 8 -9 18 3 12 0 19 -9 19 -8 0 -11 -7 -7 -19 3 -10 1 -18 -5 -18 -6 0 -11 -4 -11 -10 0 -5 7 -10 16 -10 11 0 14 -5 10 -16 -3 -9 -6 -18 -6 -20 0 -3 -5 -2 -10 1 -6 4 -17 1 -25 -5 -11 -9 -14 -7 -12 9 1 16 6 20 22 15 20 -6 20 -6 0 10 -17 13 -18 17 -5 25 12 8 12 13 2 23 -9 9 -12 8 -12 -6 0 -12 -5 -16 -15 -12 -8 3 -14 1 -12 -3 1 -5 -2 -9 -8 -10 -5 -1 -10 5 -10 12 0 15 -44 22 -57 9 -6 -6 0 -8 18 -4 17 3 25 1 21 -5 -4 -6 0 -16 8 -23 12 -10 18 -10 32 1 15 12 16 12 10 -4 -4 -10 -7 -20 -7 -23 0 -6 -34 9 -50 22 -11 9 -25 11 -45 5 -29 -7 -29 -7 -6 -14 21 -5 22 -8 11 -21 -7 -9 -19 -16 -27 -16 -10 0 -13 -6 -9 -16 3 -9 6 -19 6 -22 0 -4 4 -1 9 7 5 7 14 10 20 7 16 -10 13 -26 -5 -26 -11 0 -13 -6 -9 -19 5 -16 2 -18 -15 -14 -11 3 -20 8 -20 12 0 3 -11 6 -25 6 -14 0 -25 -4 -25 -9 0 -4 -13 -6 -30 -4 -25 4 -28 2 -17 -10 10 -12 9 -14 -3 -10 -8 2 -15 13 -15 24 0 15 6 19 30 17 17 -1 24 0 18 3 -18 8 -16 34 5 51 16 14 16 14 0 9 -21 -6 -34 12 -20 26 8 8 15 8 25 0 8 -7 18 -8 22 -4 5 4 5 -1 2 -11 -4 -11 -3 -16 3 -12 6 3 10 1 10 -6 0 -8 7 -5 20 6 23 21 16 38 -12 29 -16 -5 -18 -3 -12 7 17 27 13 40 -9 33 -12 -3 -27 -11 -34 -16 -7 -5 -16 -7 -21 -4 -8 5 -11 -3 -13 -36 0 -7 3 -23 6 -35 5 -15 3 -23 -4 -23 -6 0 -11 6 -11 14 0 16 -40 49 -49 40 -3 -3 1 -9 9 -14 10 -7 11 -10 3 -10 -7 0 -13 -5 -13 -12 0 -9 3 -9 12 0 16 16 28 15 28 -3 0 -10 -10 -15 -29 -15 -22 0 -32 -6 -37 -22 l-8 -23 -7 25 c-7 25 -7 25 -8 -4 -1 -25 -4 -28 -28 -22 -16 3 -22 3 -15 0 6 -3 12 -10 12 -16 0 -7 -5 -6 -14 2 -19 15 -10 38 17 43 12 2 2 4 -23 4 -39 1 -47 -2 -58 -25 -6 -14 -10 -28 -7 -30 2 -3 7 3 11 12 7 18 34 22 34 5 0 -5 -5 -7 -10 -4 -6 4 -9 1 -8 -7 2 -8 -7 -13 -24 -13 -21 1 -28 -4 -28 -18 0 -12 4 -16 12 -11 7 4 22 9 35 10 19 2 21 0 11 -16 -9 -14 -15 -16 -25 -8 -17 13 -25 6 -18 -14 4 -9 17 -15 30 -15 14 0 22 3 19 8 -12 19 8 30 26 14 16 -15 19 -15 34 1 12 11 21 13 27 7 7 -7 2 -13 -15 -17 -14 -3 -26 -13 -26 -22 0 -13 5 -12 26 5 15 11 30 18 35 15 14 -8 -1 -26 -17 -20 -16 6 -18 -3 -4 -24 7 -11 10 -11 10 -2 0 7 5 10 10 7 6 -3 10 1 10 9 0 9 5 16 10 16 13 0 13 -13 0 -26 -15 -15 5 -38 26 -29 11 4 36 9 57 11 21 1 41 5 44 8 10 10 9 51 -3 61 -7 6 -8 20 -4 35 8 25 8 24 10 -5 1 -16 4 -24 7 -17 2 6 14 12 26 12 16 0 18 3 8 9 -11 7 -11 9 0 13 8 3 11 9 7 13 -4 4 -14 2 -23 -5 -13 -11 -14 -10 -9 4 6 16 25 21 37 9 15 -14 57 -12 57 3 0 8 4 12 10 9 6 -4 5 -13 -2 -25 -9 -14 -20 -18 -40 -15 -21 4 -26 2 -22 -10 4 -10 0 -15 -13 -15 -26 0 -32 -7 -26 -31 4 -15 8 -17 14 -8 4 8 12 10 16 5 4 -4 -1 -14 -11 -22 -24 -17 -19 -18 22 -3 18 6 29 15 26 20 -3 5 -10 7 -15 4 -5 -4 -9 -1 -9 4 0 6 4 11 10 11 5 0 18 9 29 21 12 13 21 17 26 10 3 -6 -5 -16 -19 -22 -19 -9 -22 -14 -13 -24 12 -13 60 -3 82 16 12 12 -7 11 -42 -1 l-28 -10 24 20 c13 12 30 18 38 16 8 -3 13 0 12 7 -1 6 -1 19 0 27 1 13 2 13 11 0 5 -8 6 -26 3 -39 -4 -17 -2 -22 8 -19 17 6 21 50 5 60 -6 4 1 8 17 8 15 0 30 6 33 14 3 8 13 12 22 10 13 -5 13 -2 -2 10 -18 15 -18 16 -2 16 14 0 15 2 4 13 -13 14 -48 19 -48 7 0 -3 5 -11 12 -18 8 -8 8 -12 1 -12 -19 0 -23 28 -9 61 7 18 15 27 17 22 2 -6 12 -7 24 -2 19 7 19 8 -2 8 -34 1 -29 31 5 32 16 1 20 3 10 6 -19 5 -24 28 -9 37 5 3 12 -1 15 -10 4 -9 9 -14 13 -11 7 7 -15 37 -28 37 -5 0 -13 -8 -18 -19z"/>
<path d="M5132 5421 c2 -11 -3 -15 -17 -13 -17 2 -17 1 -5 -8 13 -9 13 -11 0 -20 -8 -5 -11 -10 -6 -10 5 0 18 8 29 18 11 9 17 11 13 5 -4 -7 -3 -13 1 -13 5 0 15 6 22 13 10 10 15 8 26 -7 8 -10 12 -23 8 -28 -3 -6 3 -8 13 -6 11 2 19 9 19 15 0 7 5 17 11 23 7 7 10 -3 10 -35 -1 -26 -6 -47 -13 -50 -7 -2 -13 0 -13 5 0 5 -14 7 -32 5 -17 -2 -44 3 -60 11 -33 17 -34 20 -9 20 11 0 17 -4 15 -8 -3 -4 2 -5 11 -2 14 6 14 8 -2 19 -21 15 -55 2 -47 -18 8 -21 59 -48 70 -37 9 9 11 -19 5 -52 -2 -12 -31 -9 -31 2 0 7 -6 7 -17 2 -10 -5 -25 -7 -33 -5 -8 3 -6 -1 5 -10 11 -9 22 -11 23 -6 2 5 8 9 13 9 6 0 7 -5 3 -11 -3 -6 0 -15 7 -20 21 -13 29 -11 23 6 -6 13 12 20 32 13 4 -2 11 8 16 21 11 31 18 24 11 -12 -4 -19 -11 -27 -22 -25 -9 2 -21 -3 -27 -11 -11 -14 -15 -14 -39 -1 -23 12 -28 12 -36 0 -8 -12 -12 -12 -16 -2 -2 6 -9 12 -14 12 -6 0 -8 -4 -5 -8 2 -4 -4 -8 -14 -8 -15 0 -16 3 -8 14 7 8 21 11 35 7 13 -3 23 -1 23 5 0 5 -13 10 -29 10 -19 0 -34 8 -45 25 -10 16 -22 22 -34 19 -13 -4 -13 -3 2 7 15 9 21 9 24 1 2 -7 8 -10 12 -7 13 8 1 35 -15 35 -7 0 -23 -9 -36 -20 l-24 -19 31 -12 c24 -10 31 -19 32 -41 1 -38 11 -51 33 -45 11 3 19 1 19 -4 0 -5 -6 -9 -14 -9 -30 0 -46 13 -46 36 0 13 -6 24 -12 24 -9 0 -8 4 2 10 16 10 14 11 -35 14 -11 1 -26 5 -32 9 -16 10 -16 2 -2 -24 8 -16 14 -18 24 -9 10 8 15 8 21 -1 4 -7 3 -9 -3 -6 -6 4 -16 0 -22 -7 -8 -10 -9 -16 -1 -21 5 -3 10 -12 10 -18 0 -7 -7 -4 -14 6 -10 13 -15 15 -19 5 -2 -7 -8 -10 -12 -5 -5 4 0 14 11 22 17 13 17 14 2 15 -9 0 -16 8 -16 18 0 9 -3 25 -7 35 -5 12 -3 17 8 17 9 0 21 -8 27 -17 7 -12 10 -13 7 -3 -4 14 28 50 44 50 5 0 6 7 3 15 -7 17 11 21 21 5 9 -15 22 -12 29 6 4 12 2 15 -9 10 -8 -3 -15 -1 -15 4 0 6 7 10 15 10 16 0 20 12 8 23 -3 4 -13 -2 -20 -13 -8 -11 -18 -18 -23 -15 -5 3 -13 -3 -19 -12 -8 -15 -13 -16 -31 -5 -11 7 -26 10 -32 6 -7 -4 -8 -3 -4 4 4 7 1 12 -8 12 -8 0 -17 -8 -19 -17 -4 -14 -5 -12 -6 5 -1 20 9 27 32 23 4 0 7 4 7 9 0 14 -12 12 -36 -4 -13 -10 -25 -11 -35 -5 -8 5 -21 9 -29 9 -13 0 -13 -1 0 -10 16 -10 14 -11 -35 -14 -23 -1 -33 -19 -13 -24 9 -2 8 0 -2 8 -12 9 -11 10 6 5 12 -3 34 0 49 7 24 11 29 10 41 -7 19 -25 18 -31 -6 -31 -13 0 -19 5 -16 13 3 7 1 13 -4 13 -6 0 -10 -4 -10 -8 0 -5 -20 -8 -44 -7 -35 1 -43 -2 -39 -14 4 -13 2 -12 -10 1 -8 10 -17 15 -20 12 -3 -3 3 -15 13 -27 11 -11 17 -24 14 -29 -3 -4 6 -8 20 -8 30 0 42 -16 26 -35 -14 -17 -5 -35 18 -35 15 0 15 2 2 10 -21 13 -6 12 24 -1 32 -15 54 1 50 36 -1 14 2 25 7 25 5 0 8 -20 7 -45 -1 -29 -4 -41 -9 -33 -5 7 -9 8 -9 2 0 -6 -12 -9 -29 -6 -16 2 -32 -1 -35 -7 -5 -7 3 -11 21 -11 15 -1 53 -3 83 -6 51 -5 56 -4 57 15 1 12 -3 21 -9 21 -6 0 -9 2 -6 5 12 12 36 -7 31 -25 -5 -18 2 -19 111 -19 74 0 118 4 122 11 5 8 1 9 -10 5 -13 -5 -17 -3 -13 7 4 11 1 13 -11 9 -13 -5 -15 -3 -5 7 15 16 43 6 50 -19 4 -16 12 -18 56 -14 36 2 57 10 69 24 9 10 19 15 22 10 4 -5 0 -11 -6 -14 -27 -9 -1 -15 44 -10 34 4 45 9 41 19 -3 8 -1 14 5 14 6 0 13 -6 15 -12 4 -10 6 -10 6 0 1 6 11 12 24 11 21 0 21 -1 2 -10 -16 -7 -12 -8 14 -4 18 3 44 5 57 5 15 0 24 6 24 15 0 8 -5 15 -11 15 -5 0 -8 -3 -6 -7 3 -5 -8 -9 -24 -10 -15 -1 -31 2 -34 7 -3 6 0 7 8 4 8 -3 18 0 22 6 13 21 -4 23 -43 3 -28 -13 -42 -16 -48 -8 -5 5 -8 8 -6 6 3 -6 -30 -41 -40 -41 -12 0 -10 28 4 36 7 5 8 3 3 -6 -5 -9 -4 -11 3 -6 14 8 9 63 -7 79 -14 14 -14 2 -1 -23 9 -17 7 -19 -19 -17 -16 1 -27 5 -24 10 2 4 -1 8 -6 8 -21 3 -26 4 -38 12 -8 5 -13 3 -13 -7 0 -8 -4 -17 -9 -20 -5 -4 -7 4 -3 16 3 13 1 19 -6 15 -5 -4 -13 -1 -16 5 -3 7 -3 3 0 -9 3 -13 1 -23 -5 -23 -6 0 -11 7 -11 15 0 8 -4 15 -10 15 -14 0 -13 -7 6 -35 17 -27 11 -47 -11 -38 -8 3 -15 0 -15 -6 0 -6 3 -12 8 -12 4 -1 20 -3 36 -5 15 -1 31 -6 35 -10 3 -3 -11 -5 -31 -2 -22 2 -38 0 -39 -7 -1 -13 -17 25 -18 43 -1 6 6 12 14 12 8 0 15 4 15 9 0 5 -10 7 -22 4 -18 -4 -20 -3 -8 6 12 8 13 14 3 30 -7 11 -9 23 -4 26 5 3 11 0 13 -5 2 -7 11 -5 23 5 20 15 20 15 0 9 -16 -6 -18 -5 -7 7 6 7 12 18 12 24 0 5 -4 4 -9 -3 -6 -10 -10 -9 -14 8 -4 17 -2 20 16 15 21 -6 21 -5 -1 8 -25 14 -20 29 6 20 13 -4 12 -2 -2 9 -12 10 -17 21 -13 32 4 10 -6 4 -24 -13 -17 -17 -28 -36 -24 -43 4 -7 -1 -4 -9 7 -15 18 -15 20 9 34 14 9 25 20 25 25 0 4 -7 3 -15 -4 -12 -10 -15 -10 -15 0 0 8 -3 10 -7 6 -5 -4 -8 -13 -8 -19 0 -6 -10 -11 -22 -10 -36 1 -39 4 -18 12 17 7 17 8 -8 13 -21 4 -27 2 -25 -11z"/>
<path d="M7752 6264 c2 -15 -2 -18 -24 -16 -22 2 -28 -1 -28 -18 0 -11 -5 -20 -10 -20 -6 0 -8 11 -6 25 6 31 -7 32 -47 3 -17 -13 -38 -23 -46 -23 -8 0 -15 -6 -17 -13 -1 -7 0 -8 2 -3 3 6 11 8 17 5 7 -2 26 0 42 5 21 7 24 10 10 10 -17 1 -17 3 -5 11 20 13 43 13 35 0 -4 -6 -1 -18 6 -26 10 -13 10 -17 0 -24 -7 -4 -21 -6 -30 -5 -9 1 -10 0 -3 -2 7 -3 10 -9 6 -14 -3 -5 -10 -7 -15 -3 -5 3 -17 0 -25 -7 -13 -10 -17 -10 -23 0 -5 7 -11 12 -15 12 -20 -3 -25 1 -20 14 4 8 1 15 -6 15 -6 0 -8 -4 -5 -10 9 -14 5 -13 -40 10 -21 11 -40 18 -41 17 -2 -2 -5 -18 -8 -37 -2 -19 -8 -45 -11 -57 -6 -20 -4 -23 21 -25 46 -2 78 3 84 13 5 8 47 5 57 -4 2 -2 -4 -10 -14 -18 -11 -9 -14 -10 -9 -1 8 14 -21 17 -42 3 -15 -9 32 -22 77 -20 l26 1 -25 8 c-18 5 -21 9 -10 13 35 13 46 14 63 5 12 -6 17 -5 17 6 0 8 -6 17 -12 19 -8 3 -6 6 5 6 9 1 17 5 17 11 0 5 7 7 15 4 8 -4 15 -3 15 1 0 3 -7 13 -15 21 -22 22 -18 34 10 32 28 -3 35 -18 8 -18 -17 -1 -17 -1 0 -11 9 -5 17 -17 17 -24 0 -8 5 -15 10 -15 6 0 10 -6 9 -12 -3 -27 1 -39 12 -32 7 4 8 9 1 13 -16 10 5 52 23 45 18 -7 19 -25 3 -43 -8 -9 -9 -11 -1 -7 13 7 36 -51 26 -67 -3 -5 -1 -7 5 -3 5 3 13 0 15 -6 4 -10 6 -10 6 0 1 15 41 16 41 0 0 -6 3 -8 6 -5 4 4 1 13 -6 22 -10 13 -9 15 8 15 24 0 38 -30 20 -42 -10 -7 -9 -9 2 -5 30 8 17 88 -14 87 -6 0 -3 -5 7 -11 9 -5 17 -14 17 -20 0 -6 -6 -7 -16 -1 -11 6 -26 5 -42 -4 -26 -13 -47 -10 -37 6 3 5 1 11 -5 15 -6 4 -8 11 -5 16 4 5 2 9 -3 9 -5 0 -7 11 -4 25 4 22 7 24 20 13 13 -11 14 -11 8 1 -5 8 -3 17 5 23 11 8 10 9 -3 4 -21 -6 -25 19 -5 27 7 3 5 6 -5 6 -13 1 -18 -7 -18 -24 0 -16 -6 -25 -15 -25 -8 0 -15 5 -15 10 0 6 -4 10 -10 10 -5 0 -10 -7 -10 -15 0 -19 -16 -20 -23 -1 -7 17 11 36 28 30 7 -3 16 0 20 6 3 6 3 10 -2 9 -18 -3 -34 1 -29 9 2 4 -13 6 -34 4 -35 -4 -38 -2 -33 17 6 24 7 25 35 10 15 -8 19 -8 14 0 -4 6 0 11 8 11 20 0 20 7 0 27 -14 15 -15 14 -12 -3z"/>
<path d="M7045 4404 c-192 -29 -338 -130 -415 -288 -50 -101 -70 -192 -70 -326 0 -359 146 -576 430 -636 92 -20 294 -14 385 11 144 40 256 126 322 251 93 175 118 478 53 644 -61 155 -169 256 -331 311 -83 29 -108 33 -219 35 -69 1 -138 0 -155 -2z"/>
<path d="M7731 3147 c-1 -14 -6 -17 -22 -12 -13 4 -19 3 -16 -2 4 -6 -4 -16 -17 -22 -20 -11 -22 -16 -12 -37 6 -13 15 -24 19 -24 5 0 5 6 0 13 -4 6 5 4 21 -6 21 -14 31 -16 41 -7 8 6 11 18 8 26 -3 9 1 14 12 14 9 0 13 5 10 10 -3 6 0 10 8 10 8 0 17 -7 21 -15 3 -8 12 -15 21 -15 13 0 14 -4 5 -20 -6 -11 -15 -18 -21 -14 -5 3 -16 0 -25 -6 -24 -21 -105 -4 -131 27 -21 24 -23 25 -23 6 0 -12 7 -23 15 -27 9 -3 12 -12 8 -22 -5 -14 -3 -15 15 -5 11 6 25 11 31 11 18 0 12 -18 -6 -23 -14 -4 -12 -5 5 -6 12 0 22 4 22 9 0 14 34 12 48 -2 10 -10 14 -8 18 10 4 12 11 22 16 22 5 0 6 -4 3 -10 -14 -22 11 -8 29 17 18 24 18 27 2 38 -15 12 -15 13 0 19 22 8 24 8 24 -9 0 -9 6 -12 17 -8 11 4 13 8 5 11 -7 2 -10 8 -7 12 3 5 12 7 20 4 7 -3 18 3 24 15 14 25 14 31 1 31 -5 0 -10 -9 -10 -21 0 -11 -4 -17 -10 -14 -5 3 -15 3 -22 -1 -19 -12 -80 -16 -74 -5 12 19 -17 24 -30 6 -16 -21 -19 -19 -33 15 -7 19 -10 21 -10 7z"/>
<path d="M6798 2988 c5 -21 6 -21 13 -2 7 18 8 18 8 -2 1 -25 20 -35 49 -27 13 3 18 11 15 19 -3 8 0 14 6 14 6 0 11 -4 11 -10 0 -5 7 -10 15 -10 8 0 15 -5 15 -11 0 -6 -8 -8 -17 -5 -10 3 -25 1 -33 -4 -12 -8 -11 -10 7 -10 25 0 39 -15 22 -26 -6 -3 -15 0 -20 7 -7 11 -9 10 -9 -5 0 -16 5 -18 35 -13 27 4 35 2 35 -9 0 -8 5 -12 10 -9 6 3 10 2 10 -4 0 -6 7 -7 17 -4 11 4 14 3 9 -5 -4 -7 -17 -10 -33 -6 -18 5 -24 3 -19 -5 4 -6 15 -11 25 -11 22 0 44 23 33 34 -4 5 0 7 8 5 8 -2 25 2 38 9 20 12 22 11 21 -15 -1 -17 -3 -21 -6 -10 -2 9 -9 17 -14 17 -6 0 -8 -10 -4 -22 4 -15 3 -18 -2 -11 -7 10 -13 10 -29 -2 -17 -13 -14 -14 39 -13 52 1 57 2 57 23 0 27 17 36 45 24 17 -6 15 -8 -10 -8 -22 -1 -26 -4 -16 -10 8 -5 21 -6 30 -3 14 5 14 4 1 -10 -12 -12 -18 -13 -29 -4 -11 9 -13 8 -9 -4 3 -8 14 -14 24 -12 10 2 25 4 32 4 7 1 11 7 8 14 -3 8 -1 16 5 20 6 3 8 13 5 21 -5 12 0 14 23 11 19 -3 27 0 24 7 -5 14 -55 7 -64 -8 -10 -14 -56 0 -56 18 0 20 16 19 24 -1 5 -13 7 -13 14 -2 11 17 11 31 1 24 -4 -2 -14 -1 -22 5 -12 7 -10 9 8 9 17 0 22 6 22 25 0 21 -5 25 -27 24 -27 0 -27 -1 -5 -9 12 -5 22 -14 22 -20 0 -16 -40 -12 -46 5 -4 8 -10 12 -15 9 -11 -6 -12 -25 -1 -21 4 1 8 -2 8 -8 3 -22 -8 -33 -28 -27 -14 3 -19 1 -14 -6 4 -7 5 -12 3 -12 -3 0 -21 -7 -42 -16 -23 -9 -34 -11 -30 -3 5 8 1 9 -14 4 -32 -10 -25 3 12 20 29 14 11 15 -23 1 -17 -7 -48 9 -37 20 3 4 13 2 20 -4 10 -9 18 -8 32 2 12 9 15 15 7 20 -7 4 -12 2 -12 -3 0 -18 -25 -12 -40 8 -7 11 -17 18 -21 15 -4 -2 -10 0 -14 6 -10 16 -45 12 -39 -4 4 -10 -1 -14 -14 -13 -12 0 -20 4 -20 7 2 21 -5 30 -21 30 -15 0 -18 -5 -13 -22z"/>
<path d="M3126 4321 c-4 -5 -18 -40 -32 -78 -14 -37 -30 -73 -34 -78 -10 -12 -75 -166 -126 -298 -19 -48 -38 -95 -44 -105 -24 -43 -77 -192 -70 -197 5 -3 10 1 12 7 4 10 72 13 299 13 162 0 308 -4 324 -8 17 -4 25 -4 18 0 -14 10 -75 133 -93 188 -7 22 -21 56 -31 75 -11 19 -19 38 -19 42 0 4 -11 31 -24 60 -13 29 -36 82 -51 118 -15 36 -33 79 -40 95 -7 17 -26 59 -41 95 -31 74 -39 86 -48 71z"/>
<path d="M5765 3178 c-19 -22 -21 -27 -24 -56 0 -7 -6 -10 -13 -6 -7 4 -8 3 -4 -5 4 -6 12 -9 17 -6 5 4 9 1 9 -4 0 -6 -5 -11 -12 -11 -6 0 -9 -2 -6 -5 3 -3 22 4 42 15 32 20 37 20 51 7 19 -19 19 -27 1 -27 -8 0 -18 -4 -21 -10 -4 -6 2 -7 17 -1 20 7 23 6 23 -15 0 -13 -3 -24 -7 -24 -5 0 -8 8 -8 17 0 21 -11 11 -14 -14 -2 -11 -11 -18 -24 -17 -12 0 -19 -3 -16 -8 3 -4 13 -8 22 -8 15 0 15 -2 2 -10 -21 -14 -3 -12 23 2 19 10 20 9 10 -3 -7 -9 -8 -20 -3 -29 9 -15 4 -30 -9 -30 -5 0 -8 7 -7 16 0 9 -5 18 -12 20 -7 1 -8 0 -2 -3 12 -5 4 -23 -11 -23 -5 0 -9 8 -9 18 -1 11 -6 7 -15 -13 l-15 -30 4 27 c1 15 -1 25 -5 22 -5 -3 -9 0 -9 5 0 6 7 11 15 11 18 0 19 5 4 32 -10 19 -9 20 13 16 17 -3 25 0 25 9 0 8 -7 11 -15 8 -8 -3 -20 -1 -26 4 -14 12 -16 -26 -2 -48 7 -11 5 -13 -8 -8 -9 4 -15 3 -11 -2 3 -5 -3 -17 -12 -27 -17 -17 -17 -18 0 -11 9 3 17 2 17 -3 0 -12 -18 -12 -45 0 -16 7 -17 9 -3 9 31 2 27 18 -5 19 -29 1 -46 -11 -47 -30 0 -5 5 -8 11 -8 5 0 8 4 4 9 -3 5 0 13 6 17 8 4 9 3 5 -4 -4 -8 3 -16 20 -22 36 -14 24 -24 -18 -14 -18 4 -39 7 -45 5 -7 -1 -13 3 -13 9 0 5 5 10 12 10 15 0 4 11 -14 14 -7 1 -19 5 -25 9 -16 10 -36 -1 -27 -14 3 -5 9 -7 14 -4 4 3 19 -8 32 -24 13 -15 37 -33 54 -39 22 -8 24 -11 9 -11 -11 -1 -31 6 -43 15 -26 18 -30 5 -4 -17 10 -9 33 -16 50 -16 25 0 32 5 33 21 1 18 2 18 9 -4 7 -22 8 -21 9 13 1 20 6 37 12 37 5 0 8 -4 5 -9 -3 -5 3 -11 14 -14 11 -3 19 -2 18 2 -2 21 4 30 18 24 13 -5 13 -7 2 -14 -20 -13 8 -12 33 1 13 8 19 7 19 0 0 -6 -6 -13 -14 -16 -8 -3 -12 -13 -9 -24 4 -16 14 -18 88 -15 46 2 89 6 94 10 19 11 12 25 -11 25 -19 0 -20 -2 -8 -11 11 -8 6 -9 -22 -5 -21 2 -38 1 -38 -5 0 -5 -5 -9 -11 -9 -8 0 -8 5 1 15 8 10 9 15 2 15 -6 0 -15 -6 -19 -14 -9 -16 -63 -11 -63 6 0 5 4 7 10 3 5 -3 8 19 7 55 -1 54 -3 59 -20 54 -12 -4 -17 -2 -13 4 8 14 46 22 46 10 0 -6 6 -5 15 2 11 9 15 9 15 1 0 -6 -7 -14 -15 -17 -19 -8 -9 -24 13 -23 11 0 12 2 4 6 -6 2 -9 9 -6 15 3 5 14 2 25 -8 10 -9 19 -13 19 -8 0 14 -43 48 -60 49 -10 0 -14 8 -12 24 3 30 -43 82 -67 74 -13 -4 -14 -3 -1 6 17 11 7 27 -10 16 -7 -4 -10 -16 -7 -26 3 -11 0 -19 -8 -19 -7 0 -12 11 -12 25 0 17 7 27 26 34 14 5 20 10 13 10 -7 1 -10 6 -7 11 11 17 0 11 -20 -12z"/>
<path d="M3899 3090 c-6 -5 -19 -6 -28 -4 -9 2 -2 -3 14 -11 23 -12 25 -15 8 -11 -15 3 -23 -1 -23 -10 0 -11 -8 -13 -32 -9 -18 4 -35 11 -36 16 -3 6 -9 5 -18 -2 -8 -6 -11 -15 -8 -20 3 -5 2 -9 -3 -9 -14 0 -35 17 -33 26 0 5 -7 10 -17 11 -15 2 -15 2 1 -5 19 -8 19 -9 -1 -14 -14 -4 -24 0 -28 10 -3 8 -8 13 -10 10 -13 -12 8 -38 26 -33 10 4 27 1 36 -5 16 -10 16 -10 -2 -6 -31 8 -47 -7 -37 -34 13 -35 50 -34 57 2 5 20 13 28 28 28 20 0 21 0 1 16 -19 15 -19 16 1 9 39 -14 79 -15 86 -3 5 7 11 9 14 6 15 -14 -8 -28 -46 -28 -44 0 -93 -35 -69 -50 8 -5 2 -10 -19 -15 -17 -3 -31 -11 -31 -16 0 -6 4 -8 9 -5 5 4 12 0 15 -6 3 -10 9 -8 19 5 18 21 69 24 61 3 -3 -8 -12 -12 -19 -9 -8 2 -20 1 -26 -3 -9 -5 -7 -10 7 -15 15 -6 12 -8 -13 -8 -25 -1 -31 -5 -27 -16 4 -8 14 -15 23 -15 14 0 14 2 1 10 -22 14 6 13 32 -1 11 -6 35 -13 51 -16 27 -4 29 -3 18 11 -7 9 -17 13 -22 10 -5 -3 -9 0 -9 6 0 7 7 9 16 6 10 -4 14 -1 11 6 -2 7 -12 12 -21 12 -19 -2 -22 12 -3 19 9 4 9 8 -2 15 -18 13 -2 37 29 45 22 6 28 -8 8 -16 -8 -3 -6 -6 5 -6 20 -1 23 19 5 38 -11 11 -8 13 17 8 17 -4 25 -4 19 -1 -16 7 -5 44 12 44 8 0 14 7 14 15 0 23 35 18 37 -5 1 -11 -3 -23 -9 -26 -7 -5 -9 -1 -5 9 8 22 1 21 -25 -3 l-21 -19 37 4 c27 4 35 2 30 -7 -4 -7 -3 -8 5 -4 8 6 11 0 8 -21 -2 -15 1 -34 7 -42 8 -11 8 -13 -1 -7 -7 4 -13 2 -13 -3 0 -6 6 -11 14 -11 10 0 12 -7 8 -22 l-5 -22 -9 24 c-6 17 -11 21 -20 12 -8 -8 -16 -6 -30 10 -10 12 -18 16 -18 10 0 -6 -8 -13 -17 -15 -13 -4 -12 -5 5 -6 12 0 25 -8 28 -16 4 -8 11 -12 16 -9 6 4 14 1 18 -5 4 -7 16 -13 27 -14 14 -1 19 -6 16 -17 -4 -10 -1 -8 9 4 8 10 20 16 26 12 6 -3 13 -2 17 4 6 9 1 12 -34 14 -8 1 -16 6 -18 13 -3 7 3 9 16 6 22 -6 29 11 9 23 -7 5 -8 3 -3 -6 5 -8 3 -11 -5 -8 -8 2 -14 17 -15 34 0 16 -6 39 -13 52 -7 12 -10 22 -7 22 3 0 -1 13 -10 30 -13 26 -20 29 -59 28 -24 0 -50 -4 -57 -8z"/>
<path d="M4362 3073 c-6 -2 -10 -9 -6 -14 3 -5 0 -9 -5 -9 -15 0 -14 -37 2 -43 7 -4 6 -6 -5 -6 -9 -1 -18 3 -20 8 -1 4 -12 -1 -23 -12 -20 -20 -20 -20 10 -13 17 4 38 9 47 12 12 4 16 1 13 -8 -4 -9 5 -13 29 -14 20 0 33 3 30 8 -3 4 0 8 5 8 9 0 14 -16 13 -40 0 -3 11 -13 24 -23 13 -10 24 -13 24 -7 0 5 4 10 10 10 5 0 7 -7 4 -15 -4 -10 -14 -13 -30 -9 -15 4 -24 2 -24 -6 0 -6 4 -9 9 -5 5 3 13 0 17 -6 5 -8 3 -9 -7 -4 -10 6 -11 5 -3 -4 17 -19 61 -23 68 -6 3 8 0 14 -6 12 -6 -1 -12 3 -15 10 -5 14 23 11 38 -4 17 -17 38 -5 32 18 -4 14 0 19 16 19 22 0 23 0 25 43 1 15 -3 27 -10 27 -7 0 -14 4 -16 9 -1 5 -18 6 -36 4 -22 -4 -31 -10 -28 -18 5 -13 -22 -30 -32 -20 -3 3 -2 5 2 5 4 0 -2 10 -13 22 -15 15 -24 18 -33 11 -24 -19 -75 -23 -88 -8 -9 11 -9 15 -1 15 6 0 10 4 9 9 -2 5 2 9 7 9 6 1 9 -7 7 -16 -2 -10 0 -13 5 -6 10 14 46 27 38 14 -3 -6 -1 -10 4 -10 6 0 11 7 11 16 0 11 -6 15 -19 11 -10 -2 -25 -1 -32 4 -8 4 -19 3 -26 -3 -9 -7 -13 -7 -13 0 0 6 8 16 18 21 13 8 14 10 2 10 -8 0 -21 -3 -28 -6z"/>
<path d="M5885 2166 c-69 -69 -27 -216 61 -216 67 0 108 68 93 155 -14 78 -102 113 -154 61z"/>
<path d="M7463 2168 c-37 -41 -45 -67 -38 -117 14 -93 99 -134 158 -75 50 49 45 164 -8 198 -36 24 -87 20 -112 -6z"/>
</g>
</svg>
