<?xml version="1.0" standalone="no"?>
<!DOCTYPE svg PUBLIC "-//W3C//DTD SVG 20010904//EN"
 "http://www.w3.org/TR/2001/REC-SVG-20010904/DTD/svg10.dtd">
<svg version="1.0" xmlns="http://www.w3.org/2000/svg"
 width="8192.000000pt" height="8192.000000pt" viewBox="0 0 8192.000000 8192.000000"
 preserveAspectRatio="xMidYMid meet">

<g transform="translate(0.000000,8192.000000) scale(0.100000,-0.100000)"
fill="#000000" stroke="none">
<path d="M0 40960 l0 -40960 40960 0 40960 0 0 40960 0 40960 -40960 0 -40960
0 0 -40960z m43614 26249 c225 -27 455 -135 623 -292 127 -119 227 -270 303
-457 12 -30 33 -77 45 -105 12 -27 33 -79 45 -115 13 -36 27 -70 31 -75 4 -6
14 -28 22 -50 15 -40 24 -64 87 -220 54 -137 81 -199 96 -227 8 -14 14 -31 14
-38 0 -7 6 -26 14 -43 8 -18 27 -63 41 -102 27 -68 40 -100 84 -198 11 -26 21
-53 21 -60 0 -6 7 -25 16 -42 8 -16 29 -66 46 -110 16 -44 33 -87 38 -96 4 -8
20 -47 35 -85 15 -38 33 -82 41 -99 7 -16 38 -93 69 -170 31 -77 65 -161 76
-187 10 -27 27 -69 38 -95 27 -72 130 -325 141 -348 16 -36 81 -199 100 -250
10 -27 28 -72 40 -100 12 -27 31 -70 40 -95 90 -227 228 -572 260 -650 58
-143 72 -177 80 -195 29 -64 93 -225 102 -255 5 -19 14 -39 18 -45 4 -5 38
-86 75 -180 37 -93 76 -189 86 -212 11 -23 19 -45 19 -48 0 -3 8 -25 19 -48
10 -23 30 -73 45 -112 15 -38 42 -106 61 -150 18 -44 37 -91 41 -105 4 -14 13
-34 20 -45 8 -11 14 -26 14 -35 0 -8 9 -32 20 -53 11 -20 20 -43 20 -49 0 -7
7 -26 15 -42 15 -27 170 -410 224 -551 15 -38 39 -98 54 -132 66 -154 77 -181
77 -191 0 -5 12 -36 26 -68 35 -79 198 -480 233 -574 16 -41 40 -102 55 -135
15 -33 39 -89 52 -125 14 -36 41 -101 59 -145 19 -44 64 -156 101 -250 36 -93
72 -183 80 -200 22 -51 86 -208 101 -250 7 -22 20 -53 28 -70 8 -16 28 -66 46
-110 66 -169 180 -451 194 -482 8 -17 15 -35 15 -39 0 -4 8 -26 18 -48 37 -82
50 -113 76 -181 15 -39 36 -91 47 -117 10 -27 28 -72 40 -100 11 -29 29 -70
40 -90 10 -20 19 -42 19 -48 0 -6 16 -48 35 -93 19 -45 50 -125 70 -177 20
-52 41 -99 46 -104 5 -6 9 -17 9 -26 0 -8 9 -32 20 -53 11 -20 20 -42 20 -47
0 -9 101 -260 135 -335 23 -51 166 -407 185 -461 10 -28 22 -60 28 -70 24 -47
52 -116 52 -127 0 -7 9 -29 20 -50 11 -20 20 -43 20 -50 0 -7 9 -29 20 -50 11
-20 20 -43 20 -49 0 -7 7 -26 16 -43 9 -16 21 -46 29 -65 28 -76 126 -316 136
-334 6 -10 17 -37 24 -60 7 -22 32 -86 55 -141 23 -55 51 -121 61 -147 11 -27
28 -70 39 -98 11 -27 28 -71 39 -97 38 -97 170 -420 201 -493 17 -41 36 -88
42 -105 5 -16 16 -43 23 -60 8 -16 25 -59 39 -95 14 -36 39 -99 56 -140 18
-41 37 -91 44 -110 16 -43 83 -208 96 -235 5 -11 30 -74 55 -140 26 -66 56
-137 66 -158 10 -21 19 -43 19 -50 0 -7 9 -29 20 -50 11 -20 20 -42 20 -48 0
-5 9 -29 19 -52 30 -67 52 -120 61 -147 5 -14 29 -74 55 -135 25 -60 62 -150
81 -200 19 -49 41 -103 49 -120 8 -16 36 -86 64 -155 80 -203 161 -404 171
-425 5 -11 16 -38 23 -60 16 -46 81 -205 101 -250 8 -16 27 -64 42 -105 15
-41 31 -79 35 -85 8 -12 54 -130 64 -165 4 -14 11 -30 15 -35 5 -6 15 -28 23
-50 29 -78 120 -304 142 -352 8 -17 15 -34 15 -38 0 -4 8 -26 19 -49 24 -52
51 -121 87 -216 15 -41 31 -80 35 -85 4 -6 14 -28 22 -50 42 -112 167 -419
182 -447 8 -14 15 -31 15 -38 0 -6 15 -48 34 -93 19 -45 48 -116 65 -157 16
-41 44 -109 61 -150 17 -41 37 -91 44 -110 19 -50 125 -311 136 -335 5 -11 18
-42 28 -70 32 -84 82 -208 97 -240 8 -16 28 -66 46 -110 62 -159 180 -450 189
-470 5 -11 32 -78 60 -150 28 -71 57 -143 64 -160 19 -41 65 -153 136 -335 81
-206 173 -430 185 -452 8 -14 15 -32 15 -38 0 -7 9 -31 19 -54 19 -39 79 -189
158 -391 20 -49 41 -103 48 -120 7 -16 25 -59 40 -95 15 -36 33 -78 40 -95 7
-16 16 -41 20 -55 4 -14 14 -34 21 -45 8 -11 14 -26 14 -35 1 -8 9 -33 20 -55
11 -22 19 -44 20 -48 0 -5 6 -23 14 -40 30 -68 59 -136 102 -247 25 -63 56
-140 70 -171 13 -31 24 -61 24 -67 0 -6 6 -23 14 -39 8 -15 26 -57 41 -93 15
-36 32 -78 40 -95 7 -16 32 -79 55 -140 23 -60 51 -128 61 -150 37 -82 59
-138 59 -152 0 -8 9 -31 19 -51 30 -57 71 -158 71 -174 0 -8 4 -18 9 -23 9
-10 36 -75 113 -270 21 -55 55 -137 74 -182 18 -45 34 -85 34 -89 0 -4 9 -25
19 -48 11 -23 34 -77 51 -121 55 -138 100 -249 115 -282 8 -17 15 -35 15 -41
0 -9 16 -46 71 -169 10 -24 19 -46 19 -50 0 -8 68 -179 94 -238 48 -106 56
-127 56 -138 0 -6 7 -25 16 -42 8 -16 27 -59 41 -95 14 -36 31 -78 39 -95 7
-16 22 -52 32 -80 35 -92 83 -210 97 -240 8 -16 26 -61 40 -100 14 -38 41
-106 61 -150 19 -44 34 -84 34 -89 0 -5 9 -27 19 -50 19 -39 42 -96 111 -273
17 -43 40 -95 50 -115 11 -20 20 -42 20 -48 0 -7 7 -26 15 -43 24 -53 117
-285 141 -352 8 -22 21 -53 28 -70 45 -100 56 -127 56 -138 0 -6 7 -25 16 -42
8 -16 26 -59 40 -95 27 -70 39 -98 108 -262 26 -59 46 -113 46 -121 0 -7 7
-22 15 -33 8 -10 15 -25 15 -32 0 -8 6 -28 14 -45 21 -48 61 -142 96 -232 56
-141 100 -249 110 -270 5 -11 39 -96 76 -190 36 -93 72 -183 79 -200 41 -93
61 -141 101 -245 43 -109 66 -166 94 -235 59 -142 175 -428 186 -460 8 -22 23
-60 33 -85 10 -25 35 -85 56 -135 42 -102 58 -141 115 -277 22 -53 40 -101 40
-106 0 -5 12 -36 26 -68 41 -92 50 -114 78 -189 26 -67 81 -201 113 -275 8
-19 21 -51 28 -70 38 -99 118 -298 140 -347 8 -17 15 -34 15 -38 0 -4 7 -21
14 -38 30 -65 98 -233 108 -267 6 -19 17 -44 24 -55 8 -11 14 -26 14 -33 0 -8
7 -30 16 -50 9 -21 25 -55 34 -77 10 -22 30 -71 45 -110 24 -64 55 -140 90
-220 7 -16 25 -61 39 -100 15 -38 43 -108 62 -155 39 -92 66 -159 94 -230 10
-25 23 -58 30 -75 7 -16 49 -122 95 -235 45 -113 87 -216 93 -230 6 -14 20
-50 32 -80 11 -30 25 -64 30 -75 24 -55 79 -191 140 -345 69 -175 213 -530
225 -555 26 -56 95 -230 95 -240 0 -5 7 -23 16 -40 9 -16 22 -46 29 -65 33
-89 203 -510 220 -545 8 -16 28 -66 46 -110 45 -115 66 -168 89 -225 11 -28
29 -73 40 -100 11 -28 28 -71 39 -97 10 -27 45 -111 76 -188 32 -77 70 -171
85 -210 14 -38 39 -99 54 -135 15 -36 36 -85 46 -110 63 -159 140 -349 160
-395 5 -11 21 -51 36 -90 15 -38 34 -88 44 -110 10 -22 21 -51 25 -65 4 -14
14 -34 21 -45 8 -11 14 -26 14 -35 0 -8 9 -32 20 -53 11 -20 20 -43 20 -49 0
-7 7 -26 16 -43 9 -16 21 -46 29 -65 24 -66 285 -715 300 -745 8 -16 26 -61
40 -100 14 -38 31 -79 37 -89 6 -11 14 -31 18 -45 5 -14 24 -64 44 -111 20
-46 36 -88 36 -94 0 -5 9 -27 19 -50 10 -23 31 -70 45 -106 15 -36 33 -78 41
-93 8 -16 15 -33 15 -39 0 -5 7 -24 15 -41 27 -60 177 -432 187 -467 5 -19 14
-40 19 -47 6 -6 14 -24 19 -40 7 -25 118 -300 140 -348 5 -11 30 -74 56 -140
25 -66 55 -138 65 -160 10 -22 32 -74 48 -115 57 -148 124 -313 157 -387 8
-17 14 -34 14 -38 0 -4 6 -21 14 -38 23 -51 87 -209 102 -252 8 -22 21 -55 29
-72 35 -77 44 -100 56 -138 6 -22 15 -44 19 -50 5 -5 25 -53 45 -105 20 -52
41 -99 46 -104 5 -6 9 -18 9 -27 0 -9 12 -43 26 -75 14 -33 30 -68 34 -79 5
-11 24 -58 41 -105 18 -47 39 -94 46 -105 7 -11 13 -25 13 -33 0 -7 8 -32 18
-55 11 -23 38 -89 61 -147 24 -58 51 -126 62 -152 10 -27 28 -72 40 -100 12
-29 27 -66 35 -83 7 -16 28 -68 45 -115 18 -47 39 -94 46 -105 7 -11 13 -28
13 -38 0 -10 9 -35 19 -55 11 -20 28 -59 39 -87 11 -27 32 -78 46 -111 14 -34
26 -66 26 -72 0 -6 16 -45 35 -88 19 -42 35 -82 35 -88 0 -6 7 -24 16 -41 9
-16 21 -46 29 -65 20 -54 124 -311 140 -347 8 -17 15 -35 15 -40 1 -4 9 -26
20 -48 11 -22 19 -44 20 -49 0 -5 18 -50 39 -100 22 -50 54 -127 71 -171 83
-207 141 -352 150 -370 5 -11 32 -78 60 -150 28 -71 57 -142 65 -157 8 -14 15
-32 15 -40 0 -7 7 -26 16 -43 14 -28 63 -147 103 -255 9 -25 22 -55 29 -67 7
-12 12 -28 12 -35 0 -7 7 -26 16 -43 9 -16 20 -41 24 -55 5 -14 29 -74 55
-135 26 -60 53 -128 61 -150 8 -22 18 -49 24 -60 5 -11 26 -60 46 -110 20 -49
47 -117 61 -150 13 -33 30 -76 37 -95 19 -50 85 -211 96 -235 5 -11 16 -38 23
-60 16 -44 82 -208 97 -240 9 -19 56 -134 102 -250 11 -27 27 -68 34 -90 8
-22 21 -53 28 -70 8 -16 23 -52 34 -80 11 -27 39 -93 61 -146 23 -53 41 -101
41 -106 0 -6 11 -35 24 -64 100 -230 163 -403 187 -512 37 -177 25 -387 -33
-567 -23 -71 -100 -235 -123 -260 -8 -9 -15 -20 -15 -24 0 -16 -112 -146 -181
-210 -78 -72 -208 -163 -274 -191 -87 -37 -174 -67 -260 -88 l-90 -22 -8805
-3 c-5858 -1 -8825 1 -8865 8 -141 23 -210 44 -275 82 -8 4 -29 15 -46 23 -17
7 -36 21 -44 29 -7 9 -18 16 -25 16 -19 0 -202 195 -224 238 -43 84 -64 131
-89 197 -25 66 -27 80 -27 250 0 118 5 194 13 220 7 22 21 81 32 130 10 50 28
133 40 185 12 52 30 131 40 175 10 44 28 118 39 165 12 47 28 110 35 140 22
89 85 329 106 405 52 181 120 419 145 500 15 50 31 104 35 120 5 17 13 44 19
60 12 36 54 166 96 305 13 42 73 219 96 285 6 17 26 75 44 130 19 55 46 132
60 170 15 39 32 88 40 110 7 22 26 72 40 110 15 39 33 88 40 110 18 50 57 154
84 223 49 121 63 158 70 182 5 14 17 45 28 70 11 25 32 77 47 115 15 39 31 79
36 90 10 21 68 163 101 248 11 26 23 55 28 65 5 9 28 62 51 117 40 96 72 169
92 209 6 10 16 35 23 55 7 20 32 77 55 126 23 50 51 109 61 133 80 180 91 205
159 347 34 72 87 182 117 245 49 103 172 351 193 390 5 8 24 47 43 85 19 39
69 138 112 220 43 83 98 188 122 235 113 216 185 350 340 622 45 81 83 150 83
153 0 3 17 34 39 68 21 34 94 159 161 277 68 118 131 226 140 240 17 23 129
212 140 235 3 6 21 35 41 65 19 30 75 120 124 200 48 80 104 170 123 200 19
30 45 71 57 90 62 98 144 224 195 300 31 47 59 90 61 95 2 6 63 98 134 204 72
106 137 203 145 217 16 25 122 180 208 303 29 42 63 92 77 111 13 19 40 58 59
85 20 28 49 68 64 90 97 138 111 158 375 519 20 28 45 62 55 76 29 42 383 510
416 551 12 14 32 41 46 59 14 19 37 48 51 64 14 17 43 54 64 81 21 28 53 68
71 90 18 22 66 81 106 131 124 155 355 438 375 459 10 11 70 81 132 155 63 74
181 212 262 305 191 219 202 239 203 371 1 83 -3 109 -21 150 -44 100 -101
240 -108 264 -4 14 -11 30 -15 35 -8 10 -48 107 -100 240 -15 39 -44 111 -65
160 -20 50 -45 110 -55 135 -10 25 -37 90 -60 145 -23 55 -50 120 -60 145 -17
44 -37 93 -65 155 -7 17 -16 41 -20 55 -4 14 -11 30 -15 35 -5 6 -15 28 -23
50 -21 58 -72 186 -119 295 -22 52 -48 115 -59 140 -10 25 -32 79 -50 120 -17
41 -39 95 -49 120 -39 100 -131 327 -144 355 -7 17 -22 53 -34 80 -32 79 -73
177 -87 210 -7 17 -25 62 -39 100 -15 39 -34 84 -41 100 -26 55 -95 224 -95
233 0 9 -81 199 -105 245 -8 16 -15 33 -15 38 0 6 -9 29 -19 52 -37 82 -101
236 -101 243 0 4 -18 50 -41 103 -22 53 -49 116 -59 141 -10 25 -48 116 -84
203 -36 86 -66 162 -66 169 0 6 -6 19 -13 27 -7 9 -18 32 -24 51 -6 19 -30 80
-53 135 -39 92 -72 172 -137 330 -14 33 -33 80 -43 105 -40 100 -91 227 -104
255 -8 17 -23 53 -34 80 -39 99 -65 161 -83 201 -11 23 -19 45 -19 49 0 6 -44
111 -104 250 -8 17 -26 62 -40 100 -15 39 -31 78 -36 87 -6 10 -16 35 -24 55
-15 41 -81 206 -96 238 -5 11 -21 49 -35 85 -15 36 -38 90 -51 121 -13 31 -24
63 -24 71 0 8 -4 18 -9 24 -5 5 -24 47 -42 94 -18 47 -36 90 -40 95 -3 6 -28
64 -54 130 -26 66 -55 138 -65 160 -10 22 -27 63 -38 90 -56 140 -74 182 -88
207 -8 14 -14 32 -14 39 0 7 -9 31 -19 53 -21 44 -101 239 -133 321 -18 49
-25 64 -67 156 -12 25 -21 49 -21 53 0 6 -39 102 -100 246 -55 131 -101 242
-124 300 -24 64 -54 134 -82 197 -8 17 -14 34 -14 38 0 4 -9 26 -19 49 -38 81
-137 323 -260 634 -24 60 -48 119 -65 157 -8 17 -23 53 -34 80 -11 28 -29 73
-40 100 -11 28 -48 118 -82 200 -34 83 -70 167 -81 187 -10 20 -19 42 -19 48
0 7 -6 26 -14 43 -32 71 -77 178 -116 277 -22 58 -45 112 -49 120 -5 9 -30 70
-56 135 -26 66 -58 143 -71 171 -13 28 -24 56 -24 62 0 6 -6 23 -14 39 -29 58
-56 120 -56 129 0 5 -19 52 -41 104 -23 52 -70 165 -104 250 -35 85 -77 189
-94 230 -18 41 -43 104 -57 140 -14 36 -33 83 -43 105 -11 22 -28 63 -39 90
-11 28 -32 79 -48 115 -36 85 -113 275 -130 323 -8 20 -18 45 -24 55 -5 9 -24
53 -40 97 -17 44 -37 94 -45 110 -7 17 -25 59 -40 95 -14 36 -30 74 -35 85
-21 49 -84 204 -97 240 -8 22 -23 60 -34 85 -37 82 -48 108 -121 290 -67 171
-97 240 -114 272 -8 14 -14 32 -14 38 0 7 -9 31 -19 54 -10 23 -31 70 -46 106
-14 36 -33 77 -41 92 -8 14 -14 32 -14 38 0 7 -8 31 -19 54 -10 23 -28 65 -40
94 -31 77 -55 135 -101 247 -23 55 -51 123 -62 150 -11 28 -26 64 -34 80 -12
28 -28 67 -119 293 -20 48 -40 96 -45 107 -5 11 -26 61 -46 110 -20 50 -46
115 -59 145 -48 117 -135 329 -169 415 -20 50 -43 102 -51 117 -8 14 -15 31
-15 38 0 6 -11 35 -24 63 -20 44 -64 150 -158 382 -11 28 -28 68 -38 90 -10
22 -21 51 -25 65 -4 14 -11 30 -15 35 -4 6 -20 42 -35 80 -14 39 -37 95 -49
125 -13 30 -37 89 -54 130 -17 41 -54 131 -82 200 -27 69 -57 138 -65 153 -8
16 -15 34 -15 40 0 7 -9 29 -20 50 -11 20 -20 43 -20 49 0 7 -7 27 -16 43 -9
17 -21 46 -29 65 -21 59 -85 213 -100 245 -8 17 -44 102 -79 190 -82 204 -143
351 -162 392 -7 17 -14 34 -14 38 0 4 -18 51 -41 104 -51 119 -115 271 -140
331 -32 77 -120 293 -140 343 -10 26 -28 71 -40 100 -12 28 -28 70 -36 92 -8
22 -18 44 -23 50 -5 6 -15 28 -23 50 -8 22 -24 64 -36 93 -12 28 -29 73 -40
100 -10 26 -37 92 -61 147 -23 55 -66 161 -96 235 -30 74 -64 155 -75 178 -11
24 -40 94 -64 155 -24 62 -63 157 -86 212 -22 55 -74 181 -114 280 -104 254
-154 375 -169 410 -8 17 -23 53 -34 80 -11 28 -39 93 -61 146 -23 53 -41 100
-41 105 0 5 -6 21 -14 36 -8 14 -19 43 -26 65 -7 21 -19 47 -26 58 -8 11 -14
28 -14 38 0 10 -8 35 -19 55 -39 77 -111 247 -111 262 0 7 -6 24 -14 38 -24
47 -56 119 -56 127 0 4 -6 21 -14 38 -55 124 -66 151 -66 162 0 22 -68 102
-107 125 -22 13 -62 24 -93 27 -47 4 -63 1 -110 -24 -57 -30 -115 -100 -126
-153 -3 -14 -14 -43 -25 -66 -10 -23 -19 -44 -19 -48 0 -4 -8 -26 -19 -49 -10
-23 -76 -186 -145 -362 -70 -176 -133 -333 -140 -350 -8 -16 -26 -61 -40 -100
-35 -90 -83 -206 -112 -272 -13 -28 -24 -55 -24 -60 0 -4 -18 -53 -41 -108
-22 -55 -49 -121 -60 -147 -10 -27 -28 -69 -38 -95 -11 -27 -32 -79 -47 -118
-14 -38 -32 -83 -40 -100 -7 -16 -25 -61 -40 -100 -14 -38 -32 -83 -40 -100
-7 -16 -35 -86 -63 -155 -48 -122 -80 -201 -142 -357 -17 -43 -44 -112 -61
-153 -47 -121 -111 -275 -134 -327 -8 -17 -14 -34 -14 -38 0 -3 -8 -25 -19
-48 -10 -23 -49 -118 -85 -212 -37 -93 -83 -207 -102 -252 -19 -45 -34 -88
-34 -95 0 -8 -4 -18 -9 -23 -8 -10 -77 -174 -107 -260 -8 -22 -19 -49 -24 -60
-5 -11 -19 -45 -30 -75 -12 -30 -30 -75 -40 -100 -11 -25 -30 -72 -44 -105
-13 -33 -34 -87 -47 -120 -19 -53 -62 -157 -119 -295 -32 -76 -81 -200 -117
-295 -18 -49 -38 -99 -43 -110 -14 -30 -79 -191 -106 -263 -13 -34 -35 -91
-50 -125 -36 -86 -55 -133 -112 -277 -28 -69 -64 -161 -82 -205 -70 -175 -91
-228 -121 -302 -17 -43 -39 -98 -49 -123 -45 -112 -72 -177 -80 -195 -5 -11
-16 -38 -23 -60 -20 -57 -75 -194 -92 -230 -8 -16 -31 -73 -51 -125 -19 -52
-45 -117 -56 -145 -11 -27 -27 -68 -35 -90 -8 -22 -18 -44 -23 -50 -4 -5 -13
-26 -18 -45 -9 -31 -72 -187 -106 -265 -8 -16 -71 -174 -140 -350 -70 -176
-143 -356 -162 -400 -19 -44 -34 -84 -34 -89 0 -5 -9 -27 -19 -50 -11 -23 -41
-95 -66 -161 -26 -66 -53 -134 -61 -152 -8 -17 -14 -38 -14 -46 0 -8 -6 -20
-14 -26 -8 -7 -18 -27 -21 -44 -4 -18 -13 -45 -20 -62 -29 -65 -65 -153 -90
-220 -15 -38 -33 -83 -40 -100 -8 -16 -32 -77 -55 -135 -75 -189 -114 -285
-137 -340 -8 -19 -28 -69 -43 -110 -16 -41 -35 -88 -44 -105 -9 -16 -16 -36
-16 -42 0 -12 -29 -82 -56 -135 -8 -14 -14 -32 -14 -38 0 -7 -12 -40 -26 -74
-14 -33 -35 -83 -46 -111 -11 -27 -29 -68 -39 -91 -11 -23 -19 -45 -19 -50 0
-5 -16 -48 -36 -94 -20 -47 -50 -123 -69 -170 -64 -166 -152 -385 -200 -495
-7 -16 -25 -61 -39 -100 -15 -38 -43 -107 -62 -152 -19 -45 -34 -84 -34 -88 0
-3 -8 -25 -18 -48 -10 -23 -25 -60 -34 -82 -15 -38 -88 -218 -128 -315 -10
-25 -40 -99 -66 -165 -26 -66 -52 -133 -59 -150 -37 -88 -58 -141 -100 -250
-25 -66 -50 -129 -55 -140 -12 -26 -79 -190 -96 -235 -7 -19 -25 -64 -39 -100
-38 -93 -65 -160 -80 -200 -8 -19 -37 -91 -65 -160 -28 -69 -55 -137 -60 -152
-5 -15 -16 -38 -24 -50 -9 -12 -16 -30 -16 -40 0 -10 -9 -35 -20 -55 -11 -21
-20 -44 -20 -51 0 -8 -7 -26 -15 -40 -8 -15 -26 -58 -40 -97 -15 -38 -35 -88
-46 -111 -10 -23 -19 -46 -19 -52 0 -6 -9 -31 -19 -54 -10 -24 -28 -65 -39
-93 -11 -27 -29 -72 -40 -100 -11 -27 -34 -84 -51 -125 -44 -112 -98 -245
-137 -337 -19 -45 -34 -87 -34 -93 0 -7 -6 -24 -14 -38 -8 -15 -26 -56 -40
-92 -39 -100 -76 -192 -92 -227 -8 -17 -14 -37 -14 -45 0 -7 -6 -22 -13 -33
-7 -11 -26 -54 -42 -95 -16 -41 -36 -93 -46 -115 -9 -22 -47 -116 -83 -210
-37 -93 -82 -207 -101 -252 -19 -45 -35 -87 -35 -93 0 -6 -9 -28 -20 -48 -11
-20 -31 -68 -45 -107 -14 -38 -41 -106 -61 -150 -19 -44 -34 -87 -34 -96 0 -8
-4 -19 -9 -25 -9 -9 -78 -176 -107 -259 -8 -22 -21 -53 -28 -70 -8 -16 -23
-54 -35 -82 -12 -29 -30 -74 -40 -100 -11 -27 -32 -79 -46 -118 -14 -38 -30
-79 -35 -90 -14 -31 -41 -95 -60 -145 -37 -98 -140 -351 -175 -435 -55 -129
-105 -256 -105 -268 0 -7 -7 -22 -15 -33 -8 -10 -15 -25 -15 -33 0 -8 -9 -33
-19 -55 -26 -54 -49 -110 -71 -171 -10 -27 -28 -74 -39 -102 -21 -52 -28 -70
-90 -228 -18 -44 -38 -94 -45 -110 -8 -17 -26 -62 -41 -100 -14 -39 -33 -83
-41 -100 -7 -16 -25 -61 -40 -100 -15 -38 -32 -83 -40 -100 -20 -44 -165 -405
-177 -440 -5 -16 -18 -46 -28 -66 -11 -20 -19 -46 -19 -57 0 -12 -4 -23 -9
-27 -5 -3 -17 -29 -27 -58 -9 -28 -20 -56 -24 -62 -4 -5 -28 -66 -54 -135 -27
-69 -56 -143 -66 -165 -10 -22 -30 -71 -45 -110 -14 -38 -33 -84 -41 -102 -8
-17 -14 -34 -14 -38 0 -3 -8 -25 -19 -48 -10 -23 -40 -96 -65 -162 -26 -66
-51 -129 -56 -140 -12 -26 -158 -389 -175 -435 -8 -19 -20 -48 -29 -65 -9 -16
-16 -37 -16 -45 0 -9 -6 -24 -14 -35 -7 -11 -18 -36 -24 -55 -12 -40 -105
-272 -148 -367 -8 -17 -14 -36 -14 -42 0 -6 -9 -28 -20 -48 -11 -21 -20 -43
-20 -50 0 -7 -9 -32 -19 -55 -10 -24 -28 -67 -40 -95 -18 -46 -33 -84 -72
-178 -112 -276 -111 -274 -107 -370 6 -131 31 -172 223 -375 123 -129 261
-281 316 -345 19 -22 83 -96 144 -165 61 -69 146 -167 190 -219 44 -52 98
-115 121 -140 22 -25 116 -140 208 -255 92 -114 195 -242 229 -283 34 -41 69
-85 77 -96 8 -12 49 -65 90 -118 77 -99 214 -277 295 -384 39 -52 209 -283
270 -367 113 -157 263 -367 277 -387 10 -14 63 -91 118 -171 173 -250 529
-787 646 -974 27 -43 79 -126 116 -185 37 -58 74 -119 83 -136 8 -16 35 -61
60 -100 24 -38 60 -97 80 -130 20 -33 46 -76 58 -96 12 -20 67 -114 122 -208
55 -95 110 -189 122 -209 12 -20 32 -58 46 -83 31 -58 145 -259 158 -279 5 -8
16 -29 23 -45 12 -26 104 -192 136 -245 10 -17 57 -107 175 -335 104 -200 276
-545 365 -730 189 -393 220 -460 310 -665 77 -176 104 -237 126 -285 20 -45
98 -232 125 -300 13 -33 26 -64 30 -70 9 -14 99 -240 99 -250 0 -4 8 -26 19
-49 50 -111 61 -137 61 -149 0 -6 7 -25 16 -42 9 -16 20 -41 24 -55 5 -14 23
-61 40 -105 18 -44 38 -98 45 -120 8 -22 26 -71 40 -110 14 -38 30 -81 35 -95
4 -14 23 -63 40 -110 17 -47 35 -98 40 -115 5 -16 23 -68 40 -115 17 -47 37
-105 45 -130 7 -25 39 -121 70 -215 48 -145 83 -255 150 -470 19 -62 53 -173
75 -250 11 -38 29 -99 40 -135 20 -69 46 -165 81 -295 11 -44 29 -108 40 -143
10 -34 19 -69 19 -77 0 -8 11 -56 25 -107 42 -150 88 -339 100 -408 4 -19 13
-57 20 -85 8 -27 24 -95 35 -150 12 -55 28 -127 36 -160 8 -33 21 -96 29 -140
8 -44 24 -127 35 -185 37 -194 41 -240 31 -315 -14 -96 -38 -197 -56 -231 -8
-16 -15 -33 -15 -37 0 -29 -105 -183 -170 -248 -118 -120 -239 -189 -410 -236
-62 -16 -486 -17 -8975 -21 l-8910 -3 -120 21 c-66 12 -135 28 -153 36 -18 8
-38 14 -44 14 -23 0 -186 84 -268 138 -263 174 -446 483 -485 819 -14 124 -14
141 5 270 11 81 30 167 45 208 15 39 33 90 41 114 7 24 18 49 23 55 5 6 12 22
16 36 4 14 15 43 25 65 10 22 28 65 40 95 12 30 28 69 35 85 7 17 22 57 35 90
29 77 67 169 91 221 10 23 19 46 19 51 0 9 10 33 60 148 5 11 25 61 44 110 19
50 56 140 81 200 26 61 50 121 55 135 4 14 22 59 39 100 18 41 43 104 57 140
14 36 31 79 39 95 8 17 21 48 29 70 16 46 81 205 101 250 16 34 111 272 131
325 7 19 25 64 39 100 15 36 35 85 45 110 48 121 131 327 140 345 14 29 117
285 157 390 35 94 36 96 77 187 14 31 26 62 26 67 0 6 9 28 20 48 11 21 20 43
20 50 0 7 9 29 19 50 10 21 40 92 65 158 26 66 63 156 82 200 19 44 34 84 34
89 0 5 9 27 19 50 11 23 32 72 47 111 14 38 32 83 39 100 7 16 23 55 35 85 12
30 30 73 40 95 10 22 22 54 28 70 9 27 70 180 92 230 27 62 73 177 141 347 19
47 40 100 78 196 35 87 92 226 127 309 19 45 34 88 34 95 0 8 4 18 9 24 9 9
78 176 107 259 14 39 25 64 57 135 9 19 23 53 31 75 15 43 79 201 102 252 8
17 14 34 14 38 0 4 7 21 15 38 8 18 66 160 129 317 157 392 185 460 201 497 8
17 15 37 15 45 0 8 4 18 9 24 8 8 53 116 112 267 43 108 60 151 133 332 42
105 83 204 91 222 8 17 15 37 15 45 0 8 7 23 15 34 8 10 15 25 15 32 0 7 9 31
19 55 58 128 71 161 71 174 0 8 9 31 20 51 11 20 31 68 46 106 14 38 30 77 35
85 4 9 20 48 34 86 15 39 34 88 45 110 10 22 39 94 65 160 61 159 84 216 95
240 14 30 150 367 175 435 7 19 20 49 29 65 9 17 16 35 16 41 0 10 20 59 61
149 5 11 22 57 38 102 17 45 35 90 41 100 9 17 146 354 175 433 8 19 20 49 29
65 9 17 16 37 16 45 0 9 6 24 14 35 7 11 18 36 24 55 6 19 31 85 57 145 26 61
53 128 61 150 8 22 18 49 23 60 37 81 61 139 61 149 0 6 7 25 16 41 9 17 22
46 29 65 7 19 22 58 33 85 11 28 43 109 71 180 29 72 58 144 66 160 17 36 121
294 141 350 14 39 25 64 57 135 9 19 23 53 30 75 19 54 75 193 93 230 12 26
173 426 224 555 10 25 37 92 60 150 23 58 48 121 55 140 8 19 27 66 44 103 17
38 31 73 31 78 0 5 9 28 20 52 22 47 189 461 225 557 7 19 20 49 29 65 9 17
16 35 16 41 0 6 14 42 31 80 18 38 40 92 50 119 27 78 89 227 105 257 7 14 14
32 14 38 0 7 18 56 41 109 22 53 50 119 61 146 11 28 29 68 39 91 11 23 19 46
19 52 0 6 10 33 21 59 12 27 27 62 35 78 7 17 31 75 52 130 22 55 65 163 97
240 32 77 63 156 71 175 7 19 25 64 39 100 15 36 35 85 45 110 40 101 92 227
105 257 8 17 15 35 15 40 1 4 9 26 20 48 11 22 19 44 20 48 0 5 6 23 14 40 15
34 56 132 86 207 10 25 34 83 54 130 19 47 56 139 81 205 25 66 55 138 65 161
11 23 20 47 20 54 0 6 7 24 15 38 8 15 37 86 65 157 28 72 55 139 60 150 5 11
35 83 66 160 57 142 72 179 139 340 20 50 45 113 55 140 10 28 57 145 105 260
48 116 90 221 95 235 4 14 15 39 24 55 9 17 16 36 16 42 0 11 28 80 52 127 5
10 16 37 23 60 16 48 78 204 105 261 11 22 40 94 65 160 46 120 54 140 94 226
12 25 21 51 21 57 0 6 9 31 19 54 11 24 39 90 62 148 23 58 50 124 61 147 10
23 18 48 18 55 0 8 6 22 13 33 7 11 26 54 42 95 15 41 45 116 67 165 21 50 38
97 38 106 0 9 7 22 15 29 8 7 15 18 15 25 0 13 54 154 71 184 4 9 20 48 34 86
14 39 32 84 40 100 8 17 21 48 29 70 16 47 81 207 101 250 8 17 36 86 64 155
70 179 120 300 136 337 8 17 15 34 15 38 0 3 8 25 19 48 10 23 40 96 65 162
26 66 51 129 56 140 5 11 26 61 46 110 20 50 47 117 61 150 13 33 30 76 38 95
22 59 50 128 130 325 43 105 86 210 95 235 9 25 25 63 34 85 52 125 90 218
122 300 27 72 47 119 70 170 7 17 22 53 32 80 46 119 313 777 338 832 8 17 14
36 14 42 0 6 9 28 20 48 11 21 20 45 20 53 0 9 6 24 14 35 7 11 16 31 20 45 4
14 25 66 46 115 21 50 60 144 86 210 47 121 65 165 90 220 7 17 25 62 39 100
14 39 32 84 40 100 8 17 21 48 29 70 8 22 51 130 96 240 45 110 91 221 101
248 11 26 28 70 39 97 11 28 29 73 40 100 11 28 29 73 40 100 11 28 29 71 39
98 10 26 30 74 44 107 64 155 221 544 234 580 8 22 23 60 34 85 35 76 38 84
52 125 20 55 75 194 92 230 15 30 116 280 141 345 7 19 25 64 39 100 15 36 35
85 45 110 66 166 84 210 101 246 10 23 19 45 19 50 0 5 6 20 13 34 8 14 18 39
25 55 19 53 48 126 137 345 101 250 122 302 140 350 7 19 20 49 29 65 9 17 16
36 16 43 0 8 7 26 15 40 13 23 142 338 181 442 7 19 24 62 37 95 14 33 41 101
61 150 20 50 43 104 51 120 17 35 72 173 92 230 8 22 20 54 28 72 8 17 15 34
15 38 0 4 7 21 14 38 22 48 93 222 126 307 25 68 55 140 80 195 5 11 16 38 23
60 14 39 50 126 117 285 17 41 34 84 37 95 3 11 23 63 45 115 22 52 49 118 60
145 11 28 26 64 33 80 8 17 23 55 35 85 12 30 30 75 41 100 10 25 27 68 38 95
10 28 53 136 96 240 42 105 84 208 91 230 8 22 21 54 29 70 12 27 39 91 95
235 10 25 46 113 80 195 34 83 68 168 76 190 8 22 20 54 28 70 13 29 38 88 77
188 56 140 102 253 125 304 8 17 14 35 14 40 0 4 15 44 34 88 18 44 55 132 81
195 25 63 55 133 66 156 10 23 19 46 19 52 0 6 9 31 19 54 18 42 45 106 82
201 42 105 62 153 74 182 8 17 26 62 41 100 14 39 32 84 40 100 7 17 24 62 39
100 14 39 34 88 45 110 11 22 30 69 44 105 24 63 52 131 82 197 8 17 14 36 14
42 0 6 9 28 20 48 11 21 20 42 20 48 0 6 9 28 20 50 11 22 20 45 20 51 0 7 11
34 24 61 13 26 33 75 44 108 12 33 28 74 36 90 9 17 16 34 16 38 0 5 7 23 15
40 21 46 85 205 102 252 7 22 18 49 23 60 5 11 20 48 34 83 14 34 38 90 52
125 14 34 30 71 35 82 16 36 161 399 176 440 7 22 20 54 27 70 8 17 24 55 36
85 12 30 28 69 35 85 7 17 25 62 39 100 15 39 33 84 41 100 19 42 83 200 105
260 10 28 37 95 60 150 23 55 49 118 57 140 8 22 19 44 24 49 5 6 9 16 9 24 0
14 51 140 72 177 6 11 15 33 19 50 4 16 28 80 54 140 26 61 55 133 65 160 10
28 39 100 65 160 26 61 51 124 56 142 5 18 14 35 19 38 6 4 10 13 10 22 0 8
11 41 24 72 22 51 57 136 106 261 10 25 39 95 65 155 26 61 50 125 55 143 4
18 12 38 17 45 5 7 23 48 40 92 18 44 39 94 47 110 9 17 16 36 16 42 0 7 9 32
20 55 10 24 31 75 46 113 14 39 29 75 33 80 7 10 16 33 77 190 14 39 35 89 45
112 11 23 19 45 19 48 0 4 7 21 15 38 12 28 134 328 185 457 56 142 83 209
101 246 10 23 19 45 19 50 1 5 9 27 20 49 11 22 19 46 20 53 0 8 7 26 15 40 8
15 48 110 89 212 68 171 84 211 107 265 5 11 17 43 27 70 38 97 83 210 97 240
8 17 23 53 33 80 29 75 82 207 92 230 10 21 58 139 110 270 17 44 40 100 50
125 41 101 72 176 80 195 5 11 21 52 36 90 14 39 32 84 40 100 7 17 47 113 87
215 41 102 80 199 87 215 7 17 20 50 30 75 10 25 34 83 54 130 19 47 47 117
61 155 15 39 35 88 46 111 10 23 19 45 19 49 0 4 7 21 15 38 8 18 39 93 69
167 64 159 82 204 102 247 8 17 14 34 14 39 0 11 51 137 60 149 4 6 11 21 15
35 4 14 13 39 20 55 44 100 119 287 142 350 39 109 107 223 197 330 73 86 194
192 261 229 33 18 56 32 97 59 14 9 32 17 40 17 7 0 24 6 38 13 51 27 198 67
275 76 122 13 5397 14 5509 0z m-2670 -14290 c50 -14 131 -95 140 -140 3 -18
6 -3709 6 -8201 0 -5423 3 -8175 10 -8188 7 -14 26 -20 77 -25 84 -7 253 -41
313 -63 25 -8 61 -19 80 -23 62 -13 295 -102 340 -129 8 -5 47 -26 85 -45 284
-146 561 -378 776 -650 68 -85 149 -202 149 -214 0 -4 9 -19 19 -33 20 -25
132 -241 163 -313 46 -108 123 -372 139 -475 5 -30 16 -92 25 -138 13 -68 15
-134 12 -350 -3 -147 -10 -289 -16 -317 -6 -27 -18 -86 -27 -130 -27 -140 -42
-197 -88 -325 -40 -112 -90 -234 -118 -283 -5 -10 -26 -47 -45 -83 -30 -56
-79 -133 -141 -224 -104 -151 -308 -367 -463 -490 -161 -128 -256 -189 -426
-274 -97 -49 -118 -59 -229 -104 -107 -44 -292 -95 -450 -123 -117 -22 -158
-24 -420 -24 -309 0 -364 6 -600 67 -193 50 -500 178 -640 269 -27 18 -68 44
-90 58 -328 212 -638 560 -819 921 -57 112 -132 298 -151 370 -3 14 -10 34
-15 45 -9 21 -51 210 -69 310 -62 357 -18 825 111 1175 48 130 82 209 130 303
51 100 53 103 117 202 44 68 158 222 183 246 14 13 44 48 67 77 38 46 115 119
277 260 27 24 94 73 149 109 55 36 111 73 125 82 42 28 265 138 332 164 119
45 133 49 199 67 37 10 72 20 77 24 6 4 37 11 69 17 32 5 87 16 123 24 36 8
94 18 130 22 l65 8 5 8206 5 8205 28 33 c15 18 27 36 27 41 0 10 77 56 105 63
37 9 110 7 149 -4z"/>
</g>
</svg>
