<svg id="svg" version="1.1" xmlns="http://www.w3.org/2000/svg" xmlns:xlink="http://www.w3.org/1999/xlink" width="400" height="400" viewBox="0, 0, 400,400"><g id="svgg"><path id="path0" d="M104.297 84.606 C 97.723 86.390,93.947 89.948,92.429 95.789 C 91.991 97.474,91.866 107.401,91.750 150.000 L 91.608 202.148 92.505 204.755 C 94.654 210.995,100.163 216.361,106.241 218.136 C 109.414 219.062,267.298 219.079,270.924 218.153 C 278.322 216.264,283.597 211.330,285.735 204.297 C 286.750 200.957,287.151 120.221,286.171 116.406 C 284.467 109.771,280.156 105.273,273.163 102.836 C 271.468 102.246,266.988 102.163,226.301 101.971 L 181.313 101.758 180.373 100.875 C 179.857 100.390,179.287 100.126,179.108 100.289 C 178.928 100.452,178.906 100.368,179.060 100.102 C 179.940 98.571,169.762 87.451,165.625 85.424 L 163.086 84.180 134.766 84.102 C 110.701 84.035,106.122 84.111,104.297 84.606 M161.717 86.405 C 161.218 86.590,160.618 86.662,160.385 86.565 C 160.152 86.469,160.269 86.376,160.645 86.359 C 161.021 86.342,161.328 86.158,161.328 85.950 C 161.328 85.742,161.620 85.683,161.977 85.820 C 162.520 86.029,162.478 86.124,161.717 86.405 M211.133 114.018 C 223.437 117.115,234.681 125.727,239.899 136.050 C 240.605 137.446,241.209 138.208,241.480 138.041 C 241.745 137.877,241.809 137.946,241.642 138.216 C 241.490 138.461,241.819 139.917,242.372 141.451 C 243.569 144.769,244.030 146.690,244.738 151.312 C 245.373 155.463,245.019 155.065,248.465 155.498 C 265.195 157.599,275.108 167.820,275.143 183.008 C 275.175 196.790,266.579 206.630,252.802 208.584 C 247.600 209.322,142.865 209.131,139.206 208.377 C 106.517 201.641,101.866 157.731,132.227 142.479 C 138.857 139.149,147.677 138.073,153.906 139.836 C 159.142 141.318,158.613 141.454,160.159 138.217 C 162.018 134.322,165.083 130.110,168.796 126.347 C 170.503 124.617,171.762 123.051,171.594 122.866 C 171.426 122.682,171.499 122.652,171.756 122.799 C 172.017 122.948,173.140 122.369,174.295 121.489 C 183.894 114.177,199.330 111.046,211.133 114.018 M126.465 218.249 C 125.874 218.338,124.907 218.338,124.316 218.249 C 123.726 218.159,124.209 218.086,125.391 218.086 C 126.572 218.086,127.056 218.159,126.465 218.249 M68.750 271.710 L 68.750 311.719 95.703 311.719 L 122.656 311.719 122.656 304.290 L 122.656 296.861 104.051 296.883 C 93.818 296.895,85.337 296.782,85.204 296.632 C 85.070 296.482,85.162 296.474,85.408 296.615 C 86.165 297.047,86.171 296.791,86.106 263.867 L 86.043 231.836 77.396 231.768 L 68.750 231.701 68.750 271.710 M71.910 232.782 C 71.608 232.974,71.124 233.040,70.836 232.930 C 70.010 232.613,70.220 232.421,71.387 232.428 C 72.169 232.432,72.311 232.529,71.910 232.782 M198.828 245.313 C 198.828 251.363,198.767 251.956,198.145 251.989 C 197.769 252.009,196.670 252.075,195.703 252.136 C 194.736 252.197,193.022 252.269,191.895 252.295 L 189.844 252.344 189.844 258.627 L 189.844 264.911 194.312 264.780 L 198.779 264.648 198.907 282.031 C 199.059 302.739,199.248 303.734,203.835 308.030 C 208.054 311.981,217.252 313.596,225.999 311.922 C 229.756 311.203,229.477 311.702,228.773 306.961 C 228.443 304.744,228.064 301.936,227.931 300.722 L 227.688 298.513 226.269 298.905 C 223.947 299.546,219.366 299.149,218.086 298.195 C 215.511 296.275,215.501 296.169,215.603 270.410 L 215.625 264.844 221.680 264.844 L 227.734 264.844 227.734 258.604 L 227.734 252.364 221.589 252.256 L 215.443 252.148 215.556 245.410 L 215.668 238.672 207.248 238.672 L 198.828 238.672 198.828 245.313 M151.953 251.035 C 146.802 252.048,140.798 254.450,141.802 255.097 C 142.259 255.392,142.201 255.450,141.525 255.372 C 138.780 255.056,132.578 263.043,131.803 267.893 L 131.566 269.377 139.026 270.103 C 143.130 270.503,146.531 270.758,146.584 270.669 C 146.636 270.580,147.136 269.629,147.694 268.555 C 151.667 260.902,165.389 261.232,167.555 269.032 C 168.054 270.829,168.100 274.609,167.624 274.609 C 165.184 274.609,147.254 277.471,144.141 278.357 C 140.951 279.265,137.479 280.900,137.763 281.360 C 137.910 281.597,137.818 281.642,137.539 281.470 C 137.260 281.297,136.318 281.760,135.233 282.602 C 126.202 289.609,127.615 304.934,137.783 310.265 C 147.611 315.417,164.920 312.889,168.037 305.847 C 168.880 303.942,169.141 304.498,169.141 308.203 L 169.141 311.719 176.942 311.719 L 184.744 311.719 184.657 289.355 C 184.555 263.126,184.540 263.028,179.746 257.715 C 178.556 256.396,177.329 255.668,177.927 256.636 C 178.066 256.862,177.900 256.920,177.527 256.777 C 177.077 256.605,177.024 256.448,177.346 256.249 C 178.348 255.629,172.503 252.826,167.969 251.752 C 165.100 251.072,154.236 250.586,151.953 251.035 M255.688 251.426 C 243.699 253.996,235.252 263.396,233.559 276.054 C 230.463 299.201,243.654 314.272,266.016 313.134 C 277.519 312.549,285.881 307.701,289.680 299.414 C 291.341 295.792,291.318 295.481,289.378 295.384 C 288.453 295.338,287.256 295.213,286.719 295.107 C 285.807 294.927,276.668 293.760,276.117 293.753 C 275.979 293.751,275.763 294.160,275.637 294.661 C 273.830 301.862,261.281 303.651,253.930 297.757 C 253.011 297.020,252.664 296.886,252.831 297.331 C 252.966 297.689,252.867 298.062,252.612 298.160 C 252.338 298.265,252.148 297.974,252.148 297.449 C 252.148 296.959,252.280 296.640,252.441 296.740 C 252.996 297.083,252.731 296.503,251.572 294.836 C 250.354 293.085,249.219 289.411,249.219 287.223 L 249.219 285.938 270.567 285.938 L 291.915 285.938 291.677 280.176 C 290.788 258.688,276.195 247.031,255.688 251.426 M327.888 251.332 C 325.294 251.962,322.045 253.581,322.163 254.185 C 322.214 254.446,322.016 254.567,321.723 254.455 C 321.009 254.181,318.981 256.677,317.660 259.453 C 316.225 262.471,316.194 262.410,316.331 256.837 L 316.451 251.953 308.225 251.953 L 300.000 251.953 300.000 281.836 L 300.000 311.719 308.203 311.719 L 316.406 311.719 316.412 295.215 C 316.419 275.104,316.735 273.135,320.574 269.295 C 323.317 266.553,325.630 265.820,331.543 265.820 L 336.719 265.820 336.719 258.301 L 336.719 250.781 333.301 250.814 C 331.421 250.833,328.985 251.066,327.888 251.332 M262.467 251.312 C 262.001 251.715,260.156 251.920,260.156 251.570 C 260.156 251.351,260.713 251.172,261.393 251.172 C 262.074 251.172,262.557 251.235,262.467 251.312 M246.141 262.072 C 245.819 262.276,245.726 262.626,245.911 262.945 C 246.080 263.237,246.075 263.346,245.899 263.187 C 245.724 263.028,245.313 263.116,244.987 263.382 C 244.558 263.733,244.588 263.571,245.094 262.793 C 245.478 262.202,245.992 261.721,246.236 261.725 C 246.497 261.728,246.458 261.871,246.141 262.072 M269.644 264.201 C 273.195 265.937,275.842 269.751,276.419 273.957 L 276.669 275.781 263.089 275.781 L 249.510 275.781 249.759 274.220 C 250.094 272.127,251.642 268.731,252.683 267.806 C 253.248 267.304,253.452 266.788,253.300 266.243 C 253.124 265.609,253.161 265.556,253.469 266.005 C 253.808 266.498,253.996 266.458,254.770 265.731 C 257.885 262.805,265.244 262.048,269.644 264.201 M165.918 275.660 C 165.542 275.758,164.927 275.758,164.551 275.660 C 164.175 275.562,164.482 275.481,165.234 275.481 C 165.986 275.481,166.294 275.562,165.918 275.660 M168.274 288.379 C 168.138 290.928,167.823 292.592,167.202 294.029 C 162.998 303.761,145.703 304.307,145.703 294.707 C 145.703 289.451,148.974 287.459,160.400 285.756 C 169.432 284.410,168.501 284.099,168.274 288.379 M220.996 311.988 C 220.620 312.086,220.005 312.086,219.629 311.988 C 219.253 311.890,219.561 311.809,220.313 311.809 C 221.064 311.809,221.372 311.890,220.996 311.988 " stroke="none" fill="#98c0e1" fill-rule="evenodd"></path><path id="path1" d="M0.000 200.000 L 0.000 400.000 200.000 400.000 L 400.000 400.000 400.000 200.000 L 400.000 0.000 200.000 0.000 L 0.000 0.000 0.000 200.000 M164.132 84.629 C 168.420 86.251,170.399 87.953,175.364 94.286 C 177.913 97.538,180.387 100.549,180.861 100.978 C 181.709 101.745,182.436 101.761,226.896 101.953 C 267.599 102.129,272.228 102.212,273.661 102.790 C 279.623 105.195,282.521 107.684,284.862 112.407 L 286.523 115.761 286.632 157.588 C 286.703 185.009,286.601 200.320,286.336 202.046 C 285.103 210.072,278.969 216.521,270.898 218.275 C 268.026 218.899,110.722 219.332,107.798 218.724 C 100.653 217.237,93.930 210.757,91.967 203.464 C 91.370 201.245,91.268 154.103,91.773 113.281 L 91.992 95.508 93.039 93.274 C 95.170 88.728,99.481 85.450,104.688 84.418 C 105.869 84.184,107.187 83.919,107.617 83.831 C 111.045 83.122,162.054 83.842,164.132 84.629 M195.539 113.280 C 180.264 115.201,165.831 125.593,159.919 138.929 C 158.779 141.501,158.719 141.528,156.193 140.641 C 149.049 138.130,140.829 138.681,133.352 142.171 C 103.013 156.333,105.575 198.937,137.305 207.896 L 140.430 208.778 192.773 208.903 C 249.132 209.037,252.944 208.938,258.125 207.201 C 268.463 203.735,274.408 195.697,274.895 184.524 C 275.579 168.835,266.023 158.107,249.307 155.799 C 245.086 155.216,245.052 155.191,244.733 152.228 C 242.129 128.058,219.638 110.251,195.539 113.280 M86.328 264.258 L 86.328 296.875 104.492 296.875 L 122.656 296.875 122.656 304.437 L 122.656 311.999 95.703 311.957 L 68.750 311.914 68.750 271.777 L 68.750 231.641 77.539 231.641 L 86.328 231.641 86.328 264.258 M215.625 245.107 L 215.625 251.933 221.777 252.041 L 227.930 252.148 228.037 258.496 L 228.144 264.844 221.872 264.844 L 215.599 264.844 215.710 279.980 C 215.856 299.949,215.806 299.866,226.934 298.731 C 227.870 298.635,227.902 298.725,228.358 302.734 C 228.615 304.990,229.003 307.803,229.221 308.984 C 229.696 311.553,229.899 311.298,226.877 311.934 C 214.941 314.446,204.596 311.448,200.882 304.402 C 198.949 300.734,198.828 299.383,198.828 281.426 L 198.828 264.844 194.131 264.844 L 189.434 264.844 189.541 258.496 L 189.648 252.148 194.238 252.038 L 198.828 251.928 198.828 245.105 L 198.828 238.281 207.227 238.281 L 215.625 238.281 215.625 245.107 M163.086 250.794 C 175.328 252.176,182.644 257.669,184.371 266.774 C 184.607 268.019,184.766 277.480,184.766 290.288 L 184.766 311.719 176.758 311.719 L 168.750 311.719 168.750 308.669 L 168.750 305.620 166.670 307.635 C 159.339 314.735,144.024 315.299,135.164 308.795 C 127.515 303.180,126.981 289.769,134.149 283.324 C 138.875 279.076,145.065 277.322,163.867 274.907 L 167.773 274.405 167.728 272.161 C 167.517 261.758,151.678 259.496,147.432 269.263 C 147.041 270.163,146.687 270.953,146.644 271.020 C 146.544 271.178,131.492 269.502,131.295 269.311 C 131.212 269.231,131.550 267.904,132.045 266.363 C 135.664 255.110,147.725 249.060,163.086 250.794 M271.992 251.537 C 284.229 254.689,292.638 267.164,291.995 281.214 C 291.970 281.771,291.915 283.062,291.873 284.082 L 291.797 285.938 270.508 285.938 L 249.219 285.938 249.225 286.816 C 249.314 300.430,268.921 307.048,275.032 295.528 C 275.666 294.333,276.232 293.747,276.757 293.742 C 277.548 293.734,291.122 295.389,291.316 295.518 C 292.285 296.161,287.292 304.168,284.247 306.852 C 274.935 315.061,255.575 315.545,244.389 307.849 C 231.469 298.960,228.891 274.457,239.485 261.249 C 246.739 252.205,259.630 248.353,271.992 251.537 M336.101 250.628 C 336.635 250.833,336.719 251.903,336.719 258.551 L 336.719 266.237 333.964 265.856 C 328.543 265.107,323.214 266.587,320.494 269.598 C 316.801 273.686,316.437 276.053,316.420 296.094 L 316.406 311.914 308.203 311.914 L 300.000 311.914 300.000 281.934 L 300.000 251.953 308.203 251.953 L 316.406 251.953 316.406 256.717 L 316.406 261.482 317.460 259.354 C 320.483 253.250,330.596 248.515,336.101 250.628 M260.652 263.285 C 256.754 264.095,253.516 266.301,251.716 269.371 C 250.802 270.932,250.470 271.872,249.835 274.707 L 249.594 275.781 263.083 275.781 L 276.572 275.781 276.313 274.121 C 275.090 266.282,268.424 261.669,260.652 263.285 M161.328 285.779 C 149.982 287.447,146.538 289.156,145.896 293.437 C 144.267 304.295,163.152 304.241,167.220 293.376 C 168.058 291.138,168.732 284.741,168.124 284.799 C 167.931 284.817,164.873 285.258,161.328 285.779 " stroke="none" fill="#fbfbfb" fill-rule="evenodd"></path><path id="path2" d="M161.328 85.950 C 161.328 86.158,161.021 86.342,160.645 86.359 C 160.269 86.376,160.152 86.469,160.385 86.565 C 160.618 86.662,161.218 86.590,161.717 86.405 C 162.478 86.124,162.520 86.029,161.977 85.820 C 161.620 85.683,161.328 85.742,161.328 85.950 M124.316 218.249 C 124.907 218.338,125.874 218.338,126.465 218.249 C 127.056 218.159,126.572 218.086,125.391 218.086 C 124.209 218.086,123.726 218.159,124.316 218.249 M70.313 232.575 C 70.313 232.955,71.413 233.097,71.910 232.782 C 72.311 232.529,72.169 232.432,71.387 232.428 C 70.796 232.425,70.313 232.491,70.313 232.575 M260.156 251.570 C 260.156 251.806,260.593 251.863,261.230 251.710 C 262.764 251.342,262.816 251.172,261.393 251.172 C 260.713 251.172,260.156 251.351,260.156 251.570 M245.094 262.793 C 244.588 263.571,244.558 263.733,244.987 263.382 C 245.313 263.116,245.724 263.028,245.899 263.187 C 246.075 263.346,246.080 263.237,245.911 262.945 C 245.726 262.626,245.819 262.276,246.141 262.072 C 246.458 261.871,246.497 261.728,246.236 261.725 C 245.992 261.721,245.478 262.202,245.094 262.793 M164.551 275.660 C 164.927 275.758,165.542 275.758,165.918 275.660 C 166.294 275.562,165.986 275.481,165.234 275.481 C 164.482 275.481,164.175 275.562,164.551 275.660 M252.148 297.411 C 252.148 297.985,252.332 298.268,252.630 298.153 C 252.977 298.020,253.000 297.762,252.713 297.227 C 252.203 296.273,252.148 296.291,252.148 297.411 M219.629 311.988 C 220.005 312.086,220.620 312.086,220.996 311.988 C 221.372 311.890,221.064 311.809,220.313 311.809 C 219.561 311.809,219.253 311.890,219.629 311.988 " stroke="none" fill="#a1ccea" fill-rule="evenodd"></path><path id="path3" d="M121.220 83.887 C 128.487 83.946,140.264 83.946,147.392 83.887 C 154.520 83.827,148.574 83.778,134.180 83.778 C 119.785 83.778,113.953 83.827,121.220 83.887 M91.513 129.688 C 91.513 130.654,91.589 131.050,91.682 130.566 C 91.775 130.083,91.775 129.292,91.682 128.809 C 91.589 128.325,91.513 128.721,91.513 129.688 M91.583 151.367 C 91.582 159.102,91.635 162.321,91.699 158.521 C 91.762 154.722,91.763 148.394,91.699 144.459 C 91.635 140.524,91.583 143.633,91.583 151.367 M91.497 166.797 C 91.497 167.549,91.577 167.856,91.676 167.480 C 91.774 167.104,91.774 166.489,91.676 166.113 C 91.577 165.737,91.497 166.045,91.497 166.797 M275.112 183.008 C 275.115 184.082,275.191 184.475,275.280 183.881 C 275.370 183.288,275.368 182.409,275.275 181.928 C 275.182 181.448,275.109 181.934,275.112 183.008 M286.453 198.438 C 286.453 199.834,286.524 200.405,286.611 199.707 C 286.697 199.009,286.697 197.866,286.611 197.168 C 286.524 196.470,286.453 197.041,286.453 198.438 M248.535 208.863 C 248.911 208.961,249.526 208.961,249.902 208.863 C 250.278 208.765,249.971 208.684,249.219 208.684 C 248.467 208.684,248.159 208.765,248.535 208.863 M141.530 219.043 C 146.218 219.105,153.776 219.105,158.327 219.042 C 162.878 218.980,159.043 218.929,149.805 218.929 C 140.566 218.929,136.843 218.980,141.530 219.043 M203.439 238.573 C 205.652 238.643,209.168 238.642,211.251 238.572 C 213.335 238.502,211.523 238.445,207.227 238.445 C 202.930 238.446,201.225 238.503,203.439 238.573 M158.496 250.666 C 158.979 250.759,159.771 250.759,160.254 250.666 C 160.737 250.573,160.342 250.497,159.375 250.497 C 158.408 250.497,158.013 250.573,158.496 250.666 M332.324 250.673 C 333.022 250.760,334.165 250.760,334.863 250.673 C 335.562 250.587,334.990 250.516,333.594 250.516 C 332.197 250.516,331.626 250.587,332.324 250.673 M216.504 252.233 C 217.095 252.322,218.062 252.322,218.652 252.233 C 219.243 252.143,218.760 252.070,217.578 252.070 C 216.396 252.070,215.913 252.143,216.504 252.233 M189.612 258.594 C 189.612 262.139,189.671 263.589,189.744 261.816 C 189.816 260.044,189.816 257.144,189.744 255.371 C 189.671 253.599,189.612 255.049,189.612 258.594 M227.893 258.594 C 227.893 262.139,227.953 263.589,228.025 261.816 C 228.097 260.044,228.097 257.144,228.025 255.371 C 227.953 253.599,227.893 255.049,227.893 258.594 M157.329 263.167 C 157.815 263.260,158.518 263.257,158.891 263.159 C 159.265 263.061,158.867 262.985,158.008 262.989 C 157.148 262.993,156.843 263.073,157.329 263.167 M232.924 281.836 C 232.927 282.910,233.003 283.303,233.093 282.709 C 233.183 282.116,233.180 281.237,233.087 280.756 C 232.995 280.276,232.921 280.762,232.924 281.836 M129.005 295.117 C 129.009 295.977,129.089 296.282,129.183 295.796 C 129.276 295.310,129.272 294.607,129.175 294.234 C 129.077 293.860,129.000 294.258,129.005 295.117 M168.881 308.984 C 168.881 310.596,168.950 311.255,169.035 310.449 C 169.119 309.644,169.119 308.325,169.035 307.520 C 168.950 306.714,168.881 307.373,168.881 308.984 M97.173 311.995 C 97.658 312.088,98.362 312.085,98.735 311.987 C 99.108 311.889,98.711 311.813,97.852 311.817 C 96.992 311.822,96.687 311.902,97.173 311.995 M103.418 311.994 C 103.901 312.088,104.692 312.088,105.176 311.994 C 105.659 311.901,105.264 311.825,104.297 311.825 C 103.330 311.825,102.935 311.901,103.418 311.994 M107.129 311.999 C 107.720 312.088,108.687 312.088,109.277 311.999 C 109.868 311.909,109.385 311.836,108.203 311.836 C 107.021 311.836,106.538 311.909,107.129 311.999 M120.215 311.994 C 120.698 312.088,121.489 312.088,121.973 311.994 C 122.456 311.901,122.061 311.825,121.094 311.825 C 120.127 311.825,119.731 311.901,120.215 311.994 M216.895 312.785 C 217.700 312.869,219.019 312.869,219.824 312.785 C 220.630 312.700,219.971 312.631,218.359 312.631 C 216.748 312.631,216.089 312.700,216.895 312.785 " stroke="none" fill="#c1daef" fill-rule="evenodd"></path><path id="path4" d="M91.497 170.703 C 91.497 171.455,91.577 171.763,91.676 171.387 C 91.774 171.011,91.774 170.396,91.676 170.020 C 91.577 169.644,91.497 169.951,91.497 170.703 M111.817 174.805 C 111.822 175.664,111.902 175.970,111.995 175.484 C 112.088 174.998,112.085 174.295,111.987 173.921 C 111.889 173.548,111.813 173.945,111.817 174.805 M286.445 191.406 C 286.445 192.588,286.518 193.071,286.608 192.480 C 286.697 191.890,286.697 190.923,286.608 190.332 C 286.518 189.741,286.445 190.225,286.445 191.406 M115.332 219.041 C 117.427 219.111,120.854 219.111,122.949 219.041 C 125.044 218.971,123.330 218.914,119.141 218.914 C 114.951 218.914,113.237 218.971,115.332 219.041 M86.069 235.156 C 86.069 236.768,86.138 237.427,86.222 236.621 C 86.306 235.815,86.306 234.497,86.222 233.691 C 86.138 232.886,86.069 233.545,86.069 235.156 M86.059 247.852 C 86.061 249.141,86.134 249.621,86.221 248.919 C 86.308 248.217,86.306 247.162,86.217 246.575 C 86.127 245.988,86.056 246.563,86.059 247.852 M86.028 252.734 C 86.028 253.486,86.109 253.794,86.207 253.418 C 86.305 253.042,86.305 252.427,86.207 252.051 C 86.109 251.675,86.028 251.982,86.028 252.734 M192.094 252.229 C 192.580 252.323,193.283 252.319,193.657 252.222 C 194.030 252.124,193.633 252.047,192.773 252.052 C 191.914 252.056,191.608 252.136,192.094 252.229 M86.074 264.453 C 86.074 266.279,86.141 267.026,86.224 266.113 C 86.306 265.200,86.306 263.706,86.224 262.793 C 86.141 261.880,86.074 262.627,86.074 264.453 M86.063 275.000 C 86.063 276.396,86.133 276.968,86.220 276.270 C 86.307 275.571,86.307 274.429,86.220 273.730 C 86.133 273.032,86.063 273.604,86.063 275.000 M86.028 279.297 C 86.028 280.049,86.109 280.356,86.207 279.980 C 86.305 279.604,86.305 278.989,86.207 278.613 C 86.109 278.237,86.028 278.545,86.028 279.297 " stroke="none" fill="#b4ccdc" fill-rule="evenodd"></path></g></svg>